<?xml version="1.0" encoding="utf-8"?>
<!-- Generator: Adobe Illustrator 24.0.0, SVG Export Plug-In . SVG Version: 6.00 Build 0)  -->
<svg version="1.1" id="Calque_1" xmlns="http://www.w3.org/2000/svg" xmlns:xlink="http://www.w3.org/1999/xlink" x="0px" y="0px"
	 viewBox="0 0 266 176" style="enable-background:new 0 0 266 176;" xml:space="preserve">
<style type="text/css">
	.st0{fill:#FFFFFF;fill-opacity:6.274510e-02;}
	.st1{fill:#FFFFFF;}
	.st2{fill:#F1F6F8;}
	.st3{fill:#FFFFFF;fill-opacity:0.451;}
	.st4{fill:#F1F6F8;fill-opacity:0.451;}
	.st5{fill:#FFFFFF;fill-opacity:0.2039;}
	.st6{fill:#FFFFFF;fill-opacity:0.3333;}
	.st7{fill:#5DC4D9;}
	.st8{fill:#4E5E6E;}
	.st9{fill:#FEA192;}
	.st10{fill:#FF738E;}
</style>
<g>
	<g>
		<path class="st0" d="M104.1,22.6c-10.7,0.1-18.6,1.4-23.9,4c-3.7,2.7-6.4,8.3-7.9,16.8c-2,11.8-1.9,29.2,0.4,52.3
			c0.8,12.8,4,27.3,9.6,43.4l81.6-29.4c0.3-10.9,1-20.6,2.2-29.2c0.5-3.4,0.9-5.8,1.1-7c3.1-12.1,4.7-19.2,4.8-21.4
			c0.5-4.3-0.3-7.8-2.3-10.5c-4.6-6-12.2-10.4-22.9-13.3C134.7,24.9,120.5,23,104.1,22.6"/>
	</g>
	<g>
		<path class="st1" d="M114.2,71.2c-0.3,0-0.5,0-0.8,0c-0.3,0-0.8,0-1.4,0c-0.6,0-1.1,0-1.6,0c-0.5,0-0.9,0-1.5,0.1
			c-0.5,0-1,0-1.5,0.1c-0.5,0-0.8,0-1.1,0.1c-0.3,0-0.7,0-1,0.1c-0.4,0-0.8,0.1-1.1,0.1c-0.4,0-0.8,0.1-1.1,0.1
			c-0.4,0-0.8,0.1-1.3,0.1c-0.5,0.1-0.9,0.1-1.3,0.2s-0.8,0.1-1.1,0.1c-0.3,0-0.7,0.1-1,0.2c-0.3,0.1-0.7,0.1-1.1,0.2
			c-0.4,0.1-0.9,0.2-1.4,0.3c-0.6,0.1-1.1,0.2-1.7,0.4c-0.5,0.1-1,0.2-1.4,0.3c-0.4,0.1-0.8,0.2-1.2,0.3c-0.4,0.1-0.8,0.2-1.2,0.4
			c-0.4,0.1-0.8,0.3-1.1,0.4c-0.3,0.1-0.7,0.2-1,0.3c-0.3,0.1-0.7,0.2-1,0.3c-0.3,0.1-0.6,0.2-1,0.4c-0.4,0.1-0.7,0.3-1.1,0.4
			c-0.4,0.1-0.7,0.3-1,0.4c-0.3,0.1-0.7,0.3-1.1,0.5c-0.4,0.2-0.8,0.4-1.2,0.6c-0.4,0.2-0.7,0.4-1.1,0.6c-0.3,0.2-0.7,0.4-1,0.6
			c-0.3,0.2-0.6,0.4-0.9,0.6c-0.3,0.2-0.6,0.4-1,0.7c-0.4,0.3-0.7,0.5-1.1,0.8c-0.4,0.3-0.7,0.5-0.9,0.8c-0.3,0.2-0.5,0.5-0.8,0.7
			c-0.3,0.2-0.5,0.5-0.7,0.7c-0.2,0.2-0.4,0.4-0.7,0.7s-0.4,0.5-0.7,0.7c-0.2,0.2-0.4,0.5-0.7,0.8c-0.2,0.3-0.4,0.6-0.5,0.9
			c-0.2,0.3-0.3,0.7-0.4,1c-0.1,0.3-0.2,0.7-0.3,1c-0.1,0.4-0.2,0.7-0.2,1c-0.1,0.3-0.1,0.7-0.1,1.1c0,0.4-0.1,0.8-0.1,1.1
			c0,0.4,0,0.7,0,1.1c0,0.4,0,0.7,0,1c0,0.3,0,0.6,0.1,0.9c0,0.3,0.1,0.6,0.1,1c0,0.3,0.1,0.6,0.1,1c0,0.3,0.1,0.7,0.2,1.2
			c0.1,0.5,0.1,0.9,0.2,1.3c0.1,0.4,0.1,0.8,0.2,1.2c0.1,0.4,0.2,0.8,0.3,1.3c0.1,0.5,0.2,0.9,0.3,1.4c0.1,0.4,0.2,0.8,0.2,1.1
			c0.1,0.3,0.1,0.7,0.2,1c0.1,0.4,0.2,0.8,0.3,1.2c0.1,0.4,0.2,0.8,0.3,1.1c0.1,0.3,0.1,0.7,0.2,1c0.1,0.4,0.2,0.8,0.3,1.2
			s0.2,0.9,0.3,1.4c0.1,0.5,0.2,0.9,0.3,1.3c0.1,0.4,0.2,0.8,0.2,1.1c0.1,0.3,0.1,0.7,0.2,1c0.1,0.3,0.1,0.7,0.2,1.1
			c0.1,0.4,0.2,0.8,0.2,1.2c0.1,0.4,0.2,0.8,0.3,1.2c0.1,0.4,0.2,0.9,0.3,1.4c0.1,0.5,0.2,0.9,0.3,1.3c0.1,0.4,0.2,0.8,0.2,1.1
			c0.1,0.4,0.2,0.8,0.2,1.1c0.1,0.4,0.2,0.7,0.2,1.1c0.1,0.4,0.2,0.7,0.2,1.1c0.1,0.4,0.2,0.8,0.3,1.3c0.1,0.5,0.2,1,0.3,1.5
			c0.1,0.5,0.2,1,0.3,1.4c0.1,0.4,0.2,0.8,0.3,1.2c0.1,0.4,0.2,0.9,0.3,1.3c0.1,0.4,0.2,0.8,0.3,1.1c0.1,0.3,0.2,0.7,0.3,1
			c0.1,0.3,0.2,0.7,0.3,1.1c0.1,0.4,0.3,0.8,0.4,1.3c0.2,0.5,0.3,0.9,0.4,1.3c0.1,0.3,0.2,0.7,0.4,1c0.1,0.3,0.3,0.7,0.4,1.1
			c0.2,0.4,0.3,0.8,0.5,1.2c0.2,0.4,0.3,0.8,0.5,1.1c0.1,0.3,0.3,0.7,0.6,1.2c0.2,0.5,0.4,0.9,0.6,1.3c0.2,0.4,0.4,0.8,0.6,1.2
			c0.2,0.4,0.4,0.8,0.7,1.2c0.2,0.4,0.4,0.8,0.7,1.2c0.2,0.4,0.4,0.8,0.7,1.1s0.4,0.7,0.6,1c0.2,0.3,0.4,0.6,0.6,1
			c0.2,0.3,0.5,0.7,0.7,1c0.2,0.3,0.4,0.6,0.7,1c0.3,0.4,0.5,0.8,0.8,1.2c0.3,0.4,0.5,0.8,0.8,1.1s0.5,0.6,0.7,0.9
			c0.2,0.3,0.4,0.6,0.7,0.9c0.3,0.3,0.5,0.6,0.8,1c0.3,0.3,0.6,0.6,0.8,0.9s0.5,0.5,0.7,0.8c0.3,0.3,0.5,0.6,0.8,0.8
			c0.2,0.2,0.5,0.5,0.7,0.7c0.3,0.3,0.5,0.5,0.9,0.8s0.6,0.6,0.8,0.8c0.2,0.2,0.5,0.5,0.9,0.8c0.3,0.3,0.6,0.5,0.9,0.7
			c0.3,0.2,0.6,0.4,0.8,0.6c0.3,0.2,0.6,0.4,1,0.7c0.4,0.2,0.7,0.5,1.1,0.7c0.3,0.2,0.6,0.4,0.9,0.5c0.3,0.2,0.6,0.3,1,0.5
			c0.4,0.2,0.8,0.3,1.2,0.5c0.4,0.2,0.8,0.3,1.1,0.4c0.3,0.1,0.7,0.2,1.1,0.3c0.4,0.1,0.8,0.2,1.2,0.3c0.4,0.1,0.8,0.1,1.3,0.2
			c0.5,0.1,0.9,0.1,1.3,0.2c0.4,0,0.9,0.1,1.4,0.1c0.5,0,0.9,0,1.3,0.1c0.3,0,0.7,0,1.1,0c0,0,0,0,0.1,0c0.4,0,0.8,0,1.1,0
			c0.4,0,0.8,0,1.2,0c0.4,0,0.8,0,1.1,0c0.4,0,0.7,0,1.1-0.1c0.4,0,0.7-0.1,1.1-0.1c0.3,0,0.6-0.1,1-0.1c0.3,0,0.7-0.1,1-0.1
			c0.4-0.1,0.8-0.1,1.1-0.2c0.4-0.1,0.8-0.1,1.1-0.2c0.4-0.1,0.8-0.1,1.2-0.2c0.4-0.1,0.8-0.1,1.1-0.2c0.3-0.1,0.7-0.1,1.1-0.2
			c0.4-0.1,0.8-0.2,1.2-0.3c0.4-0.1,0.9-0.2,1.4-0.3c0.5-0.1,0.9-0.2,1.3-0.3c0.4-0.1,0.8-0.2,1.2-0.3c0.4-0.1,0.7-0.2,1.1-0.3
			c0.3-0.1,0.6-0.2,0.9-0.2c0.3-0.1,0.7-0.2,1.1-0.3c0.4-0.1,0.8-0.2,1.2-0.3c0.4-0.1,0.8-0.2,1.2-0.3s0.8-0.2,1.1-0.3
			c0.4-0.1,0.7-0.2,1.1-0.3c0.3-0.1,0.7-0.2,1-0.3c0.3-0.1,0.7-0.2,1-0.3c0.4-0.1,0.7-0.2,1-0.3c0.3-0.1,0.7-0.2,1.1-0.3
			c0.4-0.1,0.8-0.2,1.2-0.4c0.4-0.1,0.8-0.3,1.2-0.4c0.4-0.1,0.8-0.3,1.2-0.4c0.4-0.1,0.8-0.3,1.2-0.4c0.4-0.1,0.8-0.3,1.2-0.4
			c0.4-0.1,0.8-0.3,1.1-0.4c0.3-0.1,0.7-0.2,1-0.4c0.3-0.1,0.7-0.3,1.1-0.4c0.4-0.2,0.9-0.3,1.4-0.6c0.5-0.2,0.9-0.4,1.2-0.5
			c0.3-0.1,0.7-0.3,1.1-0.5c0.4-0.2,0.8-0.4,1.2-0.6c0.4-0.2,0.8-0.4,1.1-0.6s0.7-0.5,1.1-0.7c0.4-0.3,0.7-0.5,1-0.7
			c0.3-0.2,0.5-0.5,0.8-0.7c0.3-0.3,0.5-0.6,0.6-0.9s0.2-0.6,0.3-1c0.1-0.3,0.2-0.7,0.2-1c0.1-0.3,0.1-0.7,0.2-1s0.1-0.8,0.2-1.3
			c0.1-0.5,0.1-1,0.2-1.4c0-0.4,0.1-0.8,0.1-1.2c0-0.4,0.1-0.9,0.1-1.6c0-0.7,0.1-1.4,0.1-1.9c0-0.6,0-1.1,0.1-1.6c0-0.4,0-1,0-1.7
			s0-1.3,0-2c0-0.7,0-1.3,0-2c0-0.7,0-1.2,0-1.6c0-0.4,0-0.9,0-1.5c0-0.6,0-1.2,0-1.9c0-0.7,0-1.3,0-2c0-0.7,0-1.3,0-1.8
			c0-0.5,0-1.1,0-1.7c0-0.6,0-1.2,0-1.9c0-0.7,0-1.2,0-1.6c0-0.4,0-0.9,0-1.5c0-0.6,0-1.1,0-1.6c0-0.5,0-0.9,0-1.3l-4.2-15.9
			c0.1-0.3,0.1-0.7,0.2-1c0.1-0.3,0.2-0.7,0.2-1.1c0.1-0.4,0.2-0.8,0.3-1.1c0.1-0.4,0.2-0.7,0.3-1.1c0.1-0.4,0.2-0.7,0.2-1
			c0.1-0.3,0.2-0.7,0.2-1c0.1-0.4,0.2-0.7,0.3-1.2c0.1-0.4,0.2-0.8,0.3-1.3c0.1-0.4,0.2-0.8,0.3-1.2c0.1-0.4,0.2-0.8,0.2-1.2
			c0.1-0.4,0.1-0.8,0.2-1.1c0-0.3,0.1-0.7,0.1-1.1c0-0.4,0-0.8-0.1-1.1c-0.1-0.3-0.2-0.7-0.4-1c-0.2-0.4-0.4-0.7-0.6-1
			c-0.2-0.3-0.4-0.6-0.7-0.9c-0.3-0.3-0.5-0.6-0.8-0.9c-0.3-0.3-0.6-0.6-1-0.9c-0.4-0.3-0.7-0.6-1-0.9c-0.3-0.3-0.7-0.6-1.1-0.9
			c-0.4-0.3-0.8-0.6-1.3-0.9c-0.5-0.3-0.9-0.6-1.3-0.8c-0.4-0.3-0.8-0.5-1.1-0.7c-0.3-0.2-0.7-0.4-1.2-0.6c-0.5-0.2-0.9-0.4-1.2-0.6
			c-0.3-0.2-0.8-0.3-1.2-0.5s-0.9-0.4-1.5-0.6c-0.5-0.2-1-0.4-1.5-0.6c-0.5-0.2-1.1-0.4-1.8-0.6s-1.2-0.4-1.6-0.5
			c-0.4-0.1-0.9-0.3-1.6-0.5c-0.6-0.2-1.2-0.3-1.8-0.5c-0.5-0.1-1-0.3-1.4-0.4s-0.8-0.2-1.2-0.3c-0.4-0.1-0.8-0.2-1.4-0.3
			c-0.6-0.1-1-0.2-1.4-0.3c-0.4-0.1-0.8-0.2-1.4-0.2c-0.6-0.1-1.1-0.2-1.6-0.3c-0.5-0.1-1-0.2-1.5-0.2c-0.5-0.1-0.9-0.1-1.3-0.2
			c-0.4,0-0.7-0.1-1.1-0.1c-0.4,0-0.8-0.1-1.3-0.1c-0.5-0.1-1.1-0.1-1.6-0.1c-0.6,0-1.1-0.1-1.6-0.1c-0.5,0-0.9-0.1-1.3-0.1
			c-0.4,0-0.8,0-1.3-0.1c-0.4,0-0.9,0-1.2-0.1c-0.4,0-0.8,0-1.2,0c-0.4,0-0.9,0-1.4,0c-0.5,0-1,0-1.4,0c-0.4,0-0.9,0-1.4,0
			C114.5,71.2,114.4,71.2,114.2,71.2z"/>
	</g>
	<g>
		<path class="st2" d="M111.4,71.9c-12.3,0-22.5,1.4-30.4,3.9c-7.7,2.7-10.9,5.8-9.5,9.5c1.7,3.7,7.3,6.8,16.9,9.4
			c10,2.6,21.1,3.9,33.5,3.9c12.3,0,22.5-1.4,30.5-3.9c7.7-2.7,10.9-5.8,9.5-9.5c-1.6-3.7-7.3-6.8-16.9-9.4
			C135,73.2,123.8,71.9,111.4,71.9"/>
	</g>
	<g>
		<path class="st3" d="M87.2,46.6L72.9,61.5c-1.2,1.3-1.9,2.1-2,2.6c-1.4,3.4-1.4,10.3-0.2,20.5c0.1,0,0.4-0.4,1.1-1.1
			c2.3-3,4-5.2,5.2-6.5c0.7-0.9,2.3-2.7,4.8-5.5l18.6-19.3L87.2,46.6"/>
	</g>
	<g>
		<path class="st3" d="M108.8,54.4c-2.7,3-5.1,5.6-7.2,7.7c-1.2,1.3-4.3,4.3-9.3,9c-1.4,1.3-3,3.1-5.1,5.2L70.1,96.3
			c-0.6,1.1-0.6,2.9,0.1,5.5l3.3,11.1l0.7,2.1c0.1,0.2,0.2,0.3,0.3,0.3c0.4,0,0.7-0.1,1.1-0.4c1.2-1,2.2-1.9,3.2-2.9l13.5-14.4
			c20-22,31.5-34.9,34.6-38.7L108.8,54.4"/>
	</g>
	<g>
		<path class="st4" d="M161.9,148.7c-0.2,0-0.5,0-0.7,0c-0.3,0-0.6,0-1.1,0c-0.5,0-0.9,0-1.2,0c-0.3,0-0.5,0-0.8,0
			c-0.3,0-0.6,0-1.2,0c-0.5,0-1,0-1.4,0.1c-0.4,0-0.8,0-1,0c-0.3,0-0.6,0-0.9,0.1c-0.4,0-0.7,0-1.1,0.1c-0.4,0-0.7,0-1.1,0.1
			c-0.4,0-0.9,0.1-1.6,0.1c-0.7,0.1-1.3,0.1-1.6,0.1c-0.4,0-0.8,0.1-1.3,0.1c-0.4,0-1,0.1-1.8,0.2c-0.8,0.1-1.4,0.2-1.8,0.3
			c-0.4,0.1-0.9,0.1-1.3,0.2c-0.5,0.1-1.2,0.2-2.2,0.4c-1,0.2-1.9,0.4-2.5,0.5s-1.3,0.3-2,0.4c-0.7,0.2-1.3,0.3-1.9,0.5
			c-0.6,0.2-1.3,0.3-2,0.5c-0.7,0.2-1.4,0.3-2.1,0.5c-0.7,0.2-1.4,0.4-2,0.5c-0.6,0.2-1.2,0.3-1.9,0.5s-1.3,0.4-1.9,0.6
			c-0.6,0.2-1.2,0.4-1.8,0.6c-0.6,0.2-1.1,0.4-1.7,0.6c-0.6,0.2-1.1,0.4-1.6,0.6c-0.5,0.2-1,0.4-1.5,0.6c-0.5,0.2-1,0.5-1.5,0.7
			c-0.5,0.2-1,0.5-1.4,0.7c-0.5,0.2-1,0.5-1.6,0.9c-0.6,0.3-1.1,0.6-1.3,0.7c-0.3,0.1-0.5,0.3-0.7,0.4c-0.2,0.1-0.4,0.3-0.7,0.4
			c-0.2,0.1-0.5,0.3-0.7,0.4c-0.2,0.1-0.4,0.3-0.6,0.4c-0.2,0.1-0.4,0.2-0.6,0.4s-0.5,0.3-0.8,0.5c-0.3,0.2-0.6,0.4-0.8,0.6
			c-0.2,0.2-0.4,0.3-0.6,0.5c-0.2,0.2-0.4,0.3-0.6,0.5c-0.2,0.2-0.4,0.4-0.5,0.5c-0.2,0.2-0.3,0.3-0.3,0.5c0,0.1,0.1,0.2,0.4,0.3
			c0.1,0.1,0.3,0.1,0.5,0.2c0.6,0.2,1.3,0.3,2,0.5c0.7,0.1,1.5,0.2,2.2,0.3c0.7,0.1,1.4,0.1,2.1,0.1c0.7,0,1.3,0,2,0
			c0.7,0,1.3-0.1,2-0.1s1.3-0.2,2-0.3c0.7-0.1,1.4-0.2,2.1-0.3c0.7-0.1,1.3-0.2,1.9-0.3s1.2-0.2,1.9-0.4c0.7-0.2,1.4-0.3,2.1-0.5
			c0.7-0.2,1.4-0.4,2.1-0.5c0.7-0.2,1.4-0.4,2-0.6c0.6-0.2,1.2-0.4,1.9-0.6c0.7-0.2,1.5-0.5,2.5-0.8s1.8-0.5,2.3-0.7
			c0.5-0.2,1.1-0.3,1.7-0.5s1.4-0.5,2.6-0.8c1.1-0.4,1.9-0.6,2.4-0.8c0.5-0.2,0.9-0.3,1.3-0.4c0.4-0.1,0.7-0.3,1.1-0.4
			c0.4-0.1,1.1-0.4,2-0.7s1.6-0.6,2-0.7c0.4-0.1,0.8-0.3,1.3-0.5c0.5-0.2,1.2-0.4,2.1-0.8c1-0.4,1.6-0.6,2-0.8
			c0.4-0.1,0.7-0.3,0.9-0.4c0.2-0.1,0.6-0.2,1.1-0.5c0.5-0.2,0.9-0.4,1.1-0.5l0.4-0.2L161.9,148.7L161.9,148.7z"/>
	</g>
	<g>
		<path class="st4" d="M161.7,148.9c-0.5-0.2-1.2-0.4-1.9-0.6c-0.9-0.2-1.8-0.3-2.6-0.4c-0.8-0.1-1.6-0.1-2.4-0.1
			c-0.8,0-1.6,0-2.4,0.1c-0.8,0.1-1.7,0.1-2.5,0.2c-0.9,0.1-2.2,0.3-3.8,0.6c-1.7,0.3-2.9,0.6-3.7,0.8s-1.6,0.4-2.4,0.6
			c-0.8,0.2-1.6,0.4-2.3,0.6c-0.8,0.2-1.8,0.5-3.1,0.8c-1.3,0.4-2.3,0.6-3,0.8c-0.6,0.2-1.3,0.3-1.8,0.5c-0.6,0.2-1.2,0.3-1.7,0.5
			c-0.5,0.2-1.3,0.4-2.4,0.7c-1,0.3-1.8,0.6-2.2,0.7c-0.4,0.1-0.9,0.3-1.3,0.5c-0.4,0.2-1.1,0.4-2,0.7c-0.9,0.3-1.7,0.6-2.4,0.9
			c-0.7,0.3-1.3,0.5-1.8,0.7s-1,0.4-1.5,0.6c-0.5,0.2-1,0.4-1.6,0.7c-0.6,0.2-1,0.5-1.5,0.6c-0.4,0.2-0.8,0.3-1.1,0.5
			c-0.3,0.1-0.8,0.3-1.5,0.6c-0.7,0.3-1.2,0.5-1.4,0.6c-0.3,0.1-0.5,0.2-0.8,0.3c-0.2,0.1-0.6,0.3-0.9,0.4c-0.4,0.2-0.8,0.4-1.1,0.6
			c-0.4,0.2-0.7,0.3-0.8,0.4c-0.2,0.1-0.4,0.2-0.7,0.4c-0.3,0.2-0.5,0.3-0.8,0.5c-0.2,0.1-0.4,0.3-0.6,0.4c-0.2,0.2-0.4,0.3-0.6,0.4
			c-0.2,0.1-0.4,0.3-0.6,0.6c-0.2,0.2-0.3,0.5-0.2,0.7c0.1,0.3,0.4,0.5,0.9,0.7c0.1,0.1,0.3,0.1,0.4,0.2c0.3,0.1,0.7,0.3,1.1,0.4
			c0.5,0.2,1.1,0.3,1.7,0.4c0.6,0.1,1.3,0.2,2,0.2c0.7,0,1.5,0.1,2.5,0.1c0.9,0,1.7,0,2.5-0.1c0.8-0.1,1.4-0.1,1.9-0.2
			c0.5-0.1,1-0.1,1.4-0.2c0.4-0.1,0.7-0.1,0.9-0.1l14.1-0.6c0.3-0.1,0.9-0.2,1.6-0.4c0.7-0.2,1.7-0.5,2.9-0.8s2.3-0.7,3.3-1
			c1-0.3,1.9-0.7,2.9-1c0.9-0.3,1.8-0.7,2.6-1c0.8-0.3,1.6-0.7,2.4-1c0.8-0.3,1.5-0.6,2.3-1c0.8-0.3,1.4-0.6,2-0.9
			c0.6-0.3,1.2-0.6,1.9-0.9s1.3-0.6,1.9-0.9c0.6-0.3,1.1-0.6,1.7-0.8s1-0.5,1.4-0.7c0.4-0.2,0.8-0.4,1.2-0.6c0.4-0.2,0.7-0.4,1-0.5
			c0.3-0.2,0.6-0.3,0.9-0.5c0.3-0.2,0.6-0.4,1-0.6c0.4-0.3,0.7-0.5,0.9-0.6c0.2-0.2,0.4-0.3,0.6-0.5c0.2-0.2,0.4-0.4,0.6-0.6
			c0.2-0.2,0.4-0.4,0.6-0.6c0.2-0.2,0.3-0.4,0.5-0.5c0.1-0.2,0.3-0.3,0.4-0.5c0.1-0.1,0-0.3-0.4-0.6c-0.4-0.2-0.8-0.5-1.5-0.8
			C161.9,149,161.8,148.9,161.7,148.9z"/>
	</g>
	<g>
		<path class="st2" d="M164.1,146.7c-2.9-1-8.3-0.9-16.2,0.5c-8,1.4-16.2,3.7-24.6,6.7c-8.4,3.1-14.7,6.1-18.7,9
			c-3.8,2.9-4.5,4.9-1.8,6c2.9,1.1,8.2,0.9,16.1-0.4c7.8-1.4,16-3.6,24.6-6.7c8.4-3.1,14.7-6.1,18.8-9
			C166.1,149.9,166.8,147.9,164.1,146.7"/>
	</g>
	<g>
		<path class="st2" d="M161.3,149.2c-2.5-1.3-7.4-1.5-14.7-0.8c-7.3,0.8-15,2.4-23,4.7c-7.9,2.4-13.9,4.9-18,7.5
			c-3.8,2.5-4.6,4.5-2.4,5.8c2.5,1.3,7.4,1.5,14.6,0.8c7.4-0.8,15-2.4,23-4.7c7.9-2.4,13.9-4.9,18-7.5
			C162.8,152.5,163.6,150.5,161.3,149.2"/>
	</g>
	<g>
		<path class="st5" d="M169.9,56.5l-19.1,0.4c-0.5,0.9-1.1,1.9-1.8,3c-0.7,1.1-1.7,2.8-3.2,5c-1.5,2.2-2.6,3.9-3.4,5.1
			c-0.8,1.2-1.6,2.3-2.4,3.5c-0.8,1.2-1.6,2.3-2.4,3.4c-0.8,1.1-1.9,2.8-3.5,5.1c-1.6,2.3-2.7,4-3.5,5.2c-0.8,1.1-1.5,2.3-2.2,3.4
			c-0.7,1.1-1.4,2.1-2,3c-0.6,0.9-1.5,2.3-2.7,4.1c-1.2,1.8-2.1,3.2-2.7,4.2c-0.6,1-1.3,2-2.1,3.1c-0.7,1.1-1.4,2.1-2,3.1
			c-0.6,0.9-1.6,2.5-3,4.6c-1.4,2.1-2.4,3.6-3,4.4c-0.6,0.9-1.1,1.6-1.6,2.4c-0.5,0.7-1.3,1.9-2.3,3.4c-1.1,1.5-1.9,2.7-2.4,3.5
			c-0.6,0.8-1.1,1.6-1.5,2.2c-0.5,0.7-1.1,1.6-2,2.9c-0.8,1.2-1.5,2.2-2,2.9c-0.5,0.7-0.9,1.3-1.2,1.7c-0.3,0.5-0.8,1.1-1.3,1.9
			c-0.5,0.8-1,1.5-1.3,2.1s-0.7,1.2-1.1,1.7c-0.3,0.6-0.6,1-0.9,1.4c-0.2,0.4-0.5,0.8-0.7,1.3c-0.3,0.5-0.5,0.9-0.8,1.4
			c-0.3,0.5-0.4,1.1-0.4,2c0.1,0.8,0.2,1.5,0.4,2.2c0.2,0.7,0.4,1.3,0.7,2.1s0.7,1.6,1.2,2.7c0.5,1.1,0.9,1.9,1.2,2.4
			c0.3,0.5,0.5,0.9,0.7,1.3c0.2,0.4,0.4,0.7,0.7,1.1c0.1,0.1,0.2,0.2,0.4,0.2c0.5,0,1.4-0.2,2.6-0.8c1.8-0.8,3.2-1.6,4.3-2.2
			c1.1-0.7,2-1.3,2.8-1.9c0.8-0.6,1.6-1.2,2.3-1.8c0.7-0.6,1.7-1.5,3-2.7c1.3-1.2,2.4-2.2,3.1-3c0.7-0.8,1.5-1.6,2.4-2.5
			c0.8-0.9,1.9-2.2,3.2-3.8c1.3-1.6,2.4-2.9,3.2-4c0.8-1.1,1.6-2.1,2.3-3c0.7-0.9,1.4-1.8,2.1-2.7c0.7-0.9,1.8-2.3,3.1-4.1
			c1.4-1.8,2.4-3.1,3.1-4.1c0.7-0.9,1.4-1.8,1.9-2.6c0.6-0.8,1.3-1.7,2.2-2.9c0.9-1.2,1.7-2.3,2.4-3.2c0.7-0.9,1.4-1.9,2.1-2.9
			c0.7-1,1.4-2,2-2.9c0.7-1,1.3-2,2-3c0.7-1.1,1.3-2.1,2-3.1c0.6-1,1.2-1.9,1.7-2.6c0.5-0.8,1.1-1.7,1.7-2.6c0.6-1,1.1-1.8,1.5-2.4
			c0.4-0.6,0.8-1.2,1.2-1.9c0.4-0.7,1-1.6,1.7-2.9c0.7-1.2,1.4-2.2,1.9-3.1c0.5-0.9,1-1.6,1.3-2.3c0.4-0.6,0.8-1.3,1.2-2
			c0.4-0.7,0.8-1.4,1.1-2c0.4-0.7,0.8-1.4,1.2-2.2c0.4-0.8,0.8-1.5,1.1-2c0.3-0.5,0.6-1.1,0.9-1.7c0.3-0.6,0.6-1.1,0.9-1.6
			c0.3-0.5,0.6-1,0.9-1.5c0.3-0.5,0.6-1,0.9-1.6c0.3-0.5,0.6-1,0.8-1.4c0.2-0.4,0.5-1,0.8-1.5c0.3-0.6,0.6-1.1,0.8-1.6
			c0.2-0.5,0.4-0.9,0.6-1.3c0.2-0.4,0.2-0.8,0.2-1.3c0-0.5,0-0.9-0.1-1.4c-0.1-0.5-0.1-1-0.2-1.5c-0.1-0.5-0.2-1-0.4-1.5
			c-0.2-0.5-0.3-1-0.5-1.5L169.9,56.5z"/>
	</g>
	<g>
		<path class="st6" d="M170,53.3L154.1,54l-44.7,57.2c-7.2,9.7-14.3,19.1-21.4,28.2l-2.2,3.1c-0.2,0.3-0.3,0.7-0.3,1.1
			c0.2,1.4,1.4,3.9,3.7,7.7l3.6,5.2c0.3,0.4,0.7,0.6,1.2,0.5c5.7-2.4,12.2-7.5,19.6-15.3c3.8-4,7.8-8.8,12.1-14.5l14.9-19.7
			l22.9-31.2c1.3-2.1,2.9-4.7,4.8-8c0.4-0.7,0.7-1.6,1-2.6c0.8-2.5,1-6.6,0.7-12.3"/>
	</g>
	<g>
		<path class="st7" d="M103.9,26.8c3.5,0,7.1,0.2,11,0.5c12,1.1,23.1,3.2,33.2,6.4c10.5,3.4,17.6,7.1,21.5,11l0,0
			c0.9,0.9,1.4,1.8,1.6,2.6h0l-0.7,2.2l0,0c-1.1,1.3-3.4,2.5-7,3.5c-5.2,1.4-11.5,2.1-18.8,2.1c-3.4,0-7.1-0.2-11-0.5
			c-12-1-23.1-3.2-33.2-6.4C90,44.8,82.8,41.2,79,37.2c-3.5-3.4-1.5-6.2,5.9-8.3C90.2,27.5,96.5,26.8,103.9,26.8z M75.1,41.4
			L75.1,41.4c5.1,5.2,14.3,9.7,27.5,13.5c14,3.9,28.1,5.9,42.2,5.9c10.1,0,17.9-1.2,23.5-3.4h0c-1.1,4.3-2.9,11.9-5.3,22.9
			c-1.5,7-2.6,15.7-3.2,26c-0.4,6.6-0.4,12.2,0,16.8c0.4,6.6,1.2,13.7,2.3,21.3h0c-1.8-0.3-3.9-0.5-6.4-0.5l-0.1,0
			c-7.7,0.1-16.9,1.4-27.5,4.2c-10.4,2.8-18.5,5.9-24.2,9.4c-1.9,1.2-3.4,2.4-4.5,3.5l0,0c-5.1-6.2-8.9-11.7-11.3-16.6
			c-5.1-9-9-18.6-11.5-29c-3.4-13.7-5-28.8-4.7-45.6c0.3-8.1,0.9-15.1,1.9-20.8C73.7,47.9,74.2,45.3,75.1,41.4L75.1,41.4z
			 M156,149.7c2.2,0,4,0.1,5.3,0.4c0.7,0.2,1.2,0.3,1.5,0.5l-0.4,0.5c-2.6,2.4-7.7,5-15.4,7.8c-13.5,4.6-25.8,7-37,7.2h0
			c-2.2,0-3.9-0.1-5.3-0.4c-0.6-0.1-1.1-0.3-1.5-0.5l0.4-0.5c2.6-2.4,7.7-5,15.4-7.8C132.4,152.3,144.8,149.9,156,149.7L156,149.7z
			 M103.8,21c-12.3,0.1-21.2,1.7-26.8,5h0c-1.2,0.8-2.1,1.7-2.9,2.6c-0.8,0.9-1.6,2.2-2.4,3.9c-0.2,0.2-0.5,1.1-1,2.8h0
			c-0.9,3.5-1.8,7.6-2.7,12.3c-1,5.8-1.7,13.2-2,22c-0.3,17.3,1.4,33.1,4.9,47.5c3.1,12.9,8.8,25.7,16.9,38.2c1.5,2.5,4,5.9,7.5,10
			h0c0,0,0,0,0,0h0c0.7,0.8,1.4,1.6,2.2,2.5h0c0.3,0.3,0.7,0.6,1.1,0.9c0.6,0.5,1.2,1,1.7,1.3c0.5,0.3,1.1,0.6,1.7,0.8h0
			c2.1,0.7,4.9,1,8.3,1c7.7,0,16.9-1.4,27.5-4.1c10.4-2.8,18.5-5.9,24.3-9.4c0.9-0.6,1.8-1.1,2.5-1.7h0c0.2-0.2,0.6-0.6,0.9-1
			c0.6-0.7,1.1-1.2,1.3-1.6c0.6-0.8,1-1.6,1.2-2.3c0.3-0.8,0.4-1.6,0.3-2.3c0-0.4,0-0.8-0.1-1.2l-0.4-2.3l0,0l0,0
			c-0.1-0.3-0.1-0.6-0.1-0.9c-0.9-6.5-1.5-11.5-1.8-14.8c-0.5-5.2-0.8-9.1-0.8-11.9c-0.1-3.5,0-7.3,0.2-11.5
			c0.6-9.6,1.6-17.5,2.8-23.8c3.2-14.2,5-22,5.4-23.4l2.3-7.9h0c1.9-3.2,1.2-6.8-2.1-10.7l0,0c-0.2-0.2-0.4-0.4-0.5-0.6l0,0
			c-5.2-5.1-14.3-9.6-27.5-13.3C132,23.1,118,21.1,103.8,21z"/>
	</g>
	<g>
		<path class="st1" d="M122,14.1c-0.1,0-0.2,0-0.2,0c-0.1,0-0.3,0-0.5,0.1c-0.2,0-0.3,0-0.4,0.1c-0.1,0-0.3,0-0.4,0.1
			c-0.1,0-0.3,0.1-0.4,0.1c-0.1,0-0.3,0.1-0.4,0.1c-0.1,0-0.2,0.1-0.4,0.1c-0.1,0-0.3,0.1-0.4,0.2c-0.2,0.1-0.3,0.1-0.4,0.2
			c-0.1,0-0.2,0.1-0.3,0.1c-0.1,0.1-0.2,0.1-0.4,0.2c-0.1,0.1-0.3,0.1-0.4,0.2c-0.1,0.1-0.3,0.2-0.4,0.2c-0.1,0.1-0.2,0.1-0.4,0.2
			c-0.1,0.1-0.3,0.2-0.4,0.3c-0.1,0.1-0.2,0.2-0.3,0.2c-0.1,0.1-0.2,0.2-0.3,0.2c-0.1,0.1-0.2,0.2-0.3,0.3c-0.1,0.1-0.2,0.2-0.3,0.3
			c-0.1,0.1-0.2,0.2-0.2,0.3c-0.1,0.1-0.2,0.2-0.3,0.3c-0.1,0.1-0.2,0.2-0.3,0.3c-0.1,0.1-0.2,0.2-0.2,0.3c-0.1,0.1-0.2,0.2-0.2,0.3
			c-0.1,0.1-0.2,0.3-0.3,0.4c-0.1,0.2-0.2,0.3-0.3,0.5c-0.1,0.2-0.2,0.3-0.2,0.4c-0.1,0.1-0.1,0.3-0.2,0.4c-0.1,0.1-0.1,0.3-0.2,0.4
			c-0.1,0.1-0.1,0.3-0.2,0.5c-0.1,0.2-0.1,0.3-0.2,0.4c0,0.1-0.1,0.2-0.1,0.3c0,0.1-0.1,0.3-0.2,0.5c-0.1,0.2-0.1,0.4-0.2,0.5
			c0,0.1-0.1,0.2-0.1,0.4c0,0.1-0.1,0.3-0.1,0.4c0,0.1-0.1,0.3-0.1,0.5c0,0.2-0.1,0.3-0.1,0.5c0,0.2-0.1,0.4-0.1,0.5
			c0,0.1,0,0.2,0,0.4c0,0.1,0,0.2,0,0.3c0,0.1,0,0.2,0,0.4c0,0.1,0,0.3,0,0.4c0,0.1,0,0.3,0,0.4c0,0.2,0,0.3,0,0.4
			c0,0.1,0,0.2,0,0.3c0,0.1,0,0.3,0,0.4c0,0.2,0,0.3,0,0.4c0,0.1,0,0.3,0,0.4c0,0.1,0,0.2,0,0.4c0,0.1,0,0.3,0,0.4
			c0,0.1,0,0.3,0.1,0.4c0,0.1,0.1,0.3,0.1,0.5c0,0.2,0.1,0.3,0.1,0.5c0,0.1,0.1,0.3,0.1,0.5c0.1,0.2,0.1,0.4,0.1,0.5
			c0,0.1,0.1,0.3,0.1,0.4c0,0.1,0.1,0.2,0.1,0.4c0,0.1,0.1,0.3,0.1,0.4c0.1,0.1,0.1,0.3,0.1,0.4c0,0.1,0.1,0.2,0.1,0.3
			c0,0.1,0.1,0.2,0.2,0.4c0.1,0.1,0.1,0.3,0.2,0.4c0.1,0.1,0.1,0.3,0.2,0.4c0.1,0.1,0.1,0.2,0.2,0.4c0.1,0.1,0.1,0.2,0.2,0.3
			c0.1,0.1,0.1,0.2,0.2,0.3c0.1,0.1,0.1,0.2,0.2,0.4c0.1,0.1,0.2,0.3,0.3,0.4c0.1,0.1,0.2,0.2,0.2,0.3c0.1,0.1,0.2,0.2,0.3,0.4
			c0.1,0.1,0.2,0.3,0.3,0.4c0.1,0.1,0.2,0.2,0.2,0.3c0.1,0.1,0.1,0.2,0.2,0.3c0.1,0.1,0.2,0.2,0.3,0.3c0.1,0.1,0.2,0.2,0.3,0.3
			c0.1,0.1,0.2,0.2,0.3,0.3c0.1,0.1,0.2,0.2,0.3,0.3c0.1,0.1,0.2,0.2,0.2,0.3c0.1,0.1,0.2,0.2,0.2,0.3c0.1,0.1,0.2,0.2,0.3,0.3
			c0.1,0.1,0.2,0.2,0.3,0.3c0.1,0.1,0.2,0.2,0.3,0.3c0.1,0.1,0.2,0.2,0.3,0.3c0.1,0.1,0.2,0.2,0.3,0.3c0.1,0.1,0.2,0.2,0.3,0.3
			c0.1,0.1,0.2,0.2,0.3,0.3c0.1,0.1,0.2,0.2,0.3,0.3c0.1,0.1,0.2,0.2,0.3,0.3c0.1,0.1,0.2,0.2,0.3,0.3c0.1,0.1,0.2,0.2,0.3,0.3
			c0.1,0.1,0.2,0.2,0.3,0.2c0.1,0.1,0.2,0.2,0.3,0.2c0.1,0.1,0.2,0.1,0.3,0.2c0.1,0.1,0.2,0.1,0.3,0.2c0.1,0.1,0.2,0.1,0.3,0.2
			c0.1,0.1,0.2,0.1,0.3,0.2c0.1,0.1,0.2,0.1,0.3,0.2c0.1,0.1,0.2,0.1,0.3,0.2c0.1,0.1,0.2,0.2,0.3,0.2c0.1,0.1,0.2,0.1,0.3,0.2
			c0.1,0.1,0.2,0.1,0.3,0.2c0.1,0.1,0.2,0.1,0.3,0.2c0.1,0.1,0.2,0.1,0.3,0.2c0.1,0.1,0.2,0.1,0.3,0.2l0.1,0.1l1,0.4
			c0-0.2,0.1-0.3,0.1-0.4c0-0.1,0.1-0.3,0.1-0.4c0-0.2,0.1-0.3,0.1-0.5c0-0.2,0.1-0.3,0.1-0.4c0-0.1,0.1-0.2,0.1-0.4
			c0-0.1,0.1-0.3,0.1-0.5c0-0.2,0.1-0.3,0.1-0.4c0-0.1,0.1-0.3,0.1-0.4c0-0.1,0.1-0.3,0.1-0.4c0-0.1,0.1-0.3,0.1-0.4
			c0-0.1,0.1-0.2,0.1-0.4c0-0.1,0.1-0.3,0.2-0.5c0.1-0.2,0.1-0.3,0.1-0.4c0-0.1,0.1-0.2,0.1-0.3c0-0.1,0.1-0.2,0.1-0.3
			c0-0.1,0.1-0.2,0.1-0.4c0.1-0.1,0.1-0.2,0.1-0.3c0-0.1,0.1-0.2,0.2-0.4c0.1-0.1,0.1-0.3,0.2-0.4c0.1-0.1,0.1-0.3,0.2-0.4
			c0-0.1,0.1-0.2,0.2-0.3c0.1-0.1,0.1-0.2,0.2-0.3c0.1-0.1,0.1-0.2,0.2-0.3c0.1-0.1,0.1-0.2,0.2-0.3c0.1-0.1,0.1-0.2,0.2-0.3
			c0.1-0.1,0.1-0.2,0.2-0.3c0.1-0.1,0.1-0.2,0.2-0.4c0.1-0.1,0.1-0.3,0.2-0.4c0.1-0.1,0.1-0.2,0.2-0.3c0.1-0.1,0.1-0.2,0.2-0.3
			c0.1-0.1,0.1-0.2,0.2-0.3c0.1-0.1,0.1-0.2,0.2-0.3c0.1-0.1,0.1-0.2,0.2-0.3c0.1-0.1,0.1-0.2,0.2-0.3c0.1-0.1,0.1-0.2,0.2-0.3
			c0.1-0.1,0.1-0.2,0.2-0.4c0.1-0.1,0.1-0.3,0.2-0.4s0.1-0.2,0.2-0.3c0.1-0.1,0.1-0.2,0.2-0.3c0.1-0.1,0.1-0.2,0.2-0.3
			c0.1-0.1,0.1-0.2,0.2-0.4c0.1-0.1,0.1-0.3,0.2-0.4c0.1-0.1,0.1-0.2,0.2-0.3c0-0.1,0.1-0.2,0.2-0.3c0.1-0.1,0.1-0.2,0.2-0.3
			c0-0.1,0.1-0.2,0.1-0.3c0-0.1,0.1-0.2,0.2-0.4c0.1-0.1,0.1-0.3,0.2-0.4c0-0.1,0.1-0.2,0.1-0.3c0-0.1,0.1-0.2,0.1-0.3
			c0-0.1,0.1-0.2,0.1-0.3c0-0.1,0.1-0.3,0.1-0.4c0-0.1,0.1-0.3,0.1-0.4c0-0.1,0.1-0.2,0.1-0.3c0-0.1,0-0.2,0.1-0.3
			c0-0.1,0-0.2,0.1-0.4c0-0.1,0-0.2,0-0.4c0-0.1,0-0.2,0-0.3c0-0.1,0-0.2,0-0.3c0-0.1,0-0.2,0-0.3c0-0.1,0-0.2,0-0.4
			c0-0.2,0-0.3,0-0.5c0-0.2,0-0.3,0-0.4c0-0.1,0-0.3,0-0.4c0-0.1,0-0.3-0.1-0.4c0-0.1,0-0.2-0.1-0.4c0-0.1-0.1-0.3-0.1-0.4
			c0-0.2-0.1-0.3-0.1-0.4c0-0.1-0.1-0.2-0.1-0.4c0-0.1-0.1-0.2-0.1-0.4c0-0.1-0.1-0.2-0.1-0.3c0-0.1-0.1-0.2-0.1-0.3
			c0-0.1-0.1-0.2-0.1-0.3c0-0.1-0.1-0.2-0.2-0.3c-0.1-0.1-0.1-0.2-0.2-0.4c-0.1-0.1-0.1-0.2-0.2-0.4c-0.1-0.1-0.2-0.3-0.3-0.4
			c-0.1-0.1-0.2-0.3-0.3-0.4c-0.1-0.1-0.2-0.2-0.2-0.3c-0.1-0.1-0.2-0.2-0.2-0.3c-0.1-0.1-0.2-0.2-0.2-0.3c-0.1-0.1-0.2-0.2-0.2-0.2
			c-0.1-0.1-0.2-0.2-0.2-0.2c-0.1-0.1-0.2-0.2-0.3-0.2c-0.1-0.1-0.2-0.2-0.3-0.2c-0.1-0.1-0.2-0.1-0.3-0.2c-0.1-0.1-0.2-0.2-0.3-0.3
			c-0.1-0.1-0.3-0.2-0.4-0.3c-0.1-0.1-0.3-0.2-0.4-0.3c-0.1-0.1-0.3-0.2-0.4-0.2c-0.1-0.1-0.3-0.1-0.4-0.2c-0.1-0.1-0.2-0.1-0.4-0.2
			c-0.1-0.1-0.3-0.1-0.4-0.2c-0.1-0.1-0.3-0.1-0.4-0.2c-0.1-0.1-0.3-0.1-0.4-0.1c-0.1,0-0.3-0.1-0.4-0.1c-0.1,0-0.3-0.1-0.4-0.1
			c-0.1,0-0.3-0.1-0.4-0.1c-0.1,0-0.3,0-0.4-0.1c-0.1,0-0.3,0-0.4,0c-0.1,0-0.3,0-0.4,0c-0.2,0-0.3,0-0.4,0c-0.1,0-0.3,0-0.4,0
			C122.2,14.1,122.1,14.1,122,14.1z"/>
	</g>
	<g>
		<path class="st1" d="M170.9,6.8c-2.5-2.2-5.4-3-8.5-2.4c-3.9,0.8-7.1,2.6-9.6,5.4c-2.7,2.8-4.9,6.7-6.7,11.4
			c-2.9,8.3-4.5,14.3-4.8,17.9c4.6-3.4,9.6-5.8,15-7.1c2.2-0.4,4.5-0.5,6.9-0.2c1.1,0.1,2.3,0.3,3.6,0.6c4.1,1,6.5,1.6,7.3,1.7
			c1.4,0.2,2.7,0.3,4.1,0.3c3.5-0.1,6.2-1.3,8.3-3.5c2.5-2.7,2.7-5.9,0.8-9.5c-0.6-1.1-1.7-2-3.1-2.8c-0.3-0.3-2.2-1.1-5.7-2.3
			c-0.7-0.3-1.1-0.5-1.4-0.8c-0.2-0.1-0.4-0.4-0.7-1c-1.4-2.7-2.3-4.3-2.8-5C172.7,8.6,171.9,7.6,170.9,6.8"/>
	</g>
	<g>
		<path class="st1" d="M196.6,46.3c-3.6-4.5-8.6-6.8-15.1-6.7c-2.7,0.1-5.8,0.7-9.1,2.1c-1.8,0.7-3,1.3-3.7,1.7
			c-1,0.5-2.8,1.7-5.4,3.5l-1.2,0.5c3.9,0.6,6.9,2,8.9,4c0.8,0.8,1.6,1.8,2.3,2.9c0.3,0.4,1.2,2.2,2.8,5.5c0.3,0.6,0.6,1.1,1,1.7
			c0.9,1.5,1.9,2.6,2.9,3.4c2.6,2,5.4,2.9,8.6,2.8c5.1-0.3,8.7-2.9,10.9-7.9c0.8-1.7,0.9-4,0.3-6.9
			C199.2,50.5,198.2,48.3,196.6,46.3"/>
	</g>
	<g>
		<path class="st8" d="M110.1,111.9c-1.5,0.2-2.7,1-3.6,2.4c-0.9,1.5-1.3,3.2-1.1,5.1c0.2,1.9,0.9,3.5,2.1,4.8
			c1.2,1.2,2.5,1.8,4,1.7c1.5-0.2,2.7-1,3.6-2.4c0.9-1.5,1.3-3.2,1.1-5.1c-0.2-1.9-0.9-3.5-2.1-4.8
			C112.9,112.3,111.6,111.8,110.1,111.9"/>
	</g>
	<g>
		<path class="st1" d="M112.2,114.1c-0.4,0.1-0.8,0.4-1.1,0.9c-0.3,0.5-0.3,1.2-0.3,1.9c0.1,0.7,0.3,1.3,0.7,1.8
			c0.4,0.5,0.8,0.7,1.2,0.6c0.4-0.1,0.8-0.4,1.1-0.9c0.3-0.6,0.3-1.2,0.3-1.9c-0.1-0.7-0.3-1.3-0.7-1.8
			C113.1,114.2,112.7,114,112.2,114.1"/>
	</g>
	<g>
		<path class="st8" d="M137.8,108c-1.5,0.2-2.7,1-3.6,2.4c-0.9,1.5-1.3,3.2-1.1,5.1c0.2,1.9,0.9,3.5,2.1,4.8c1.2,1.2,2.5,1.8,4,1.7
			c1.5-0.2,2.7-1,3.6-2.4c0.9-1.5,1.3-3.2,1.1-5.1c-0.2-1.9-0.9-3.5-2.1-4.8C140.7,108.4,139.3,107.9,137.8,108"/>
	</g>
	<g>
		<path class="st1" d="M140,110.1c-0.4,0.1-0.8,0.4-1.1,0.9c-0.3,0.5-0.3,1.2-0.3,1.9c0.1,0.7,0.3,1.3,0.7,1.8
			c0.4,0.5,0.8,0.7,1.2,0.6c0.4-0.1,0.8-0.4,1.1-0.9c0.3-0.6,0.3-1.2,0.3-1.9c-0.1-0.7-0.3-1.3-0.7-1.8
			C140.8,110.3,140.4,110.1,140,110.1"/>
	</g>
	<g>
		<path class="st8" d="M130.8,124.5c-1,0.1-2,0.2-3,0.3c-0.6,0.1-1.7,0.2-3.3,0.4c-0.8,0.1-1.4,0.2-1.9,0.3l0,0
			c-0.2,0.1-0.4,0.2-0.5,0.5c-0.1,0.3-0.2,0.6-0.1,0.9c0,0.2,0,0.4,0.1,0.6c0,0.1,0.1,0.3,0.1,0.5l0,0c0,0,0,0.1,0,0.1
			c0.4,1.2,0.8,2.1,1.2,2.6c1,1.2,2.1,1.8,3.5,1.7c0.1,0,0.3,0,0.5,0c1.6-0.3,2.7-1.2,3.5-2.7c0.4-0.8,0.6-1.6,0.8-2.6
			c0.1-0.4,0.1-0.9,0.1-1.4l0,0c0-0.3-0.1-0.5-0.2-0.6c-0.1-0.2-0.3-0.3-0.6-0.4C130.9,124.5,130.8,124.5,130.8,124.5L130.8,124.5z"
			/>
	</g>
	<g>
		<path class="st9" d="M148.8,120.5c-1-0.5-2.1-0.6-3.2-0.4c-1.2,0.2-2.1,0.8-2.8,1.6c-0.7,0.8-0.9,1.7-0.8,2.6
			c0.2,0.9,0.8,1.6,1.7,2.1c1,0.5,2,0.6,3.2,0.4c1.2-0.2,2.1-0.8,2.8-1.6c0.7-0.8,0.9-1.7,0.8-2.6
			C150.4,121.8,149.8,121,148.8,120.5"/>
	</g>
	<g>
		<path class="st9" d="M103.9,128.3c0.7-0.8,1.6-1.3,2.8-1.6c1.2-0.2,2.2-0.1,3.1,0.4c0.9,0.5,1.5,1.2,1.7,2.1
			c0.2,0.9-0.1,1.8-0.7,2.6c-0.7,0.8-1.6,1.3-2.7,1.6c-1.1,0.2-2.2,0.1-3.2-0.4c-0.9-0.5-1.5-1.2-1.7-2.1
			C103,129.9,103.2,129.1,103.9,128.3"/>
	</g>
	<g>
		<path class="st10" d="M126.4,127.6c-0.7,0.2-1.2,0.5-1.6,1c-0.4,0.5-0.5,1-0.3,1.5c0.2,0.5,0.6,0.9,1.2,1.1c0.6,0.2,1.3,0.2,2,0.1
			c0.7-0.2,1.2-0.5,1.6-1c0.4-0.5,0.5-1,0.3-1.5c-0.2-0.5-0.6-0.9-1.2-1.1C127.8,127.4,127.1,127.4,126.4,127.6"/>
	</g>
</g>
</svg>
