<?xml version="1.0" encoding="utf-8"?>
<!-- Generator: Adobe Illustrator 24.0.0, SVG Export Plug-In . SVG Version: 6.00 Build 0)  -->
<svg version="1.1" id="Calque_1" xmlns="http://www.w3.org/2000/svg" xmlns:xlink="http://www.w3.org/1999/xlink" x="0px" y="0px"
	 viewBox="0 0 266 176" style="enable-background:new 0 0 266 176;" xml:space="preserve">
<style type="text/css">
	.st0{fill:#FFFFFF;fill-opacity:6.274510e-02;}
	.st1{fill:#FFFFFF;}
	.st2{fill:#F1F6F8;}
	.st3{fill:#FFFFFF;fill-opacity:0.451;}
	.st4{fill:#F1F6F8;fill-opacity:0.451;}
	.st5{fill:#FFFFFF;fill-opacity:0.2039;}
	.st6{fill:#FFFFFF;fill-opacity:0.3333;}
	.st7{fill:#5DC4D9;}
	.st8{fill:#4E5E6E;}
	.st9{fill:#FEA192;}
	.st10{fill:#FF738E;}
</style>
<g>
	<g>
		<path class="st0" d="M161.8,22.6c-16.3,0.4-30.4,2.3-42.4,5.8c-10.7,2.8-18.3,7.3-22.9,13.3c-2,2.7-2.8,6.2-2.3,10.5
			c0,2.2,1.6,9.3,4.8,21.4c0.3,1.2,0.6,3.5,1.1,7c1.2,8.6,1.9,18.3,2.2,29.2l81.6,29.4c5.6-16.1,8.8-30.6,9.6-43.4
			c2.2-23.1,2.4-40.6,0.4-52.3c-1.5-8.5-4.2-14.1-7.9-16.8C180.5,24.1,172.5,22.8,161.8,22.6"/>
	</g>
	<g>
		<path class="st1" d="M151.3,71.2c-0.5,0-1,0-1.4,0c-0.4,0-0.9,0-1.4,0c-0.5,0-1,0-1.4,0c-0.4,0-0.8,0-1.2,0c-0.4,0-0.8,0-1.2,0.1
			c-0.4,0-0.9,0-1.3,0.1c-0.4,0-0.9,0.1-1.3,0.1c-0.5,0-1,0.1-1.6,0.1c-0.6,0-1.1,0.1-1.6,0.1c-0.5,0.1-0.9,0.1-1.3,0.1
			c-0.4,0-0.7,0.1-1.1,0.1c-0.4,0-0.8,0.1-1.3,0.2c-0.5,0.1-1,0.1-1.5,0.2c-0.5,0.1-1.1,0.2-1.6,0.3c-0.6,0.1-1,0.2-1.4,0.2
			c-0.4,0.1-0.8,0.2-1.4,0.3c-0.6,0.1-1,0.2-1.4,0.3c-0.4,0.1-0.8,0.2-1.2,0.3c-0.4,0.1-0.9,0.2-1.4,0.4c-0.5,0.1-1.1,0.3-1.8,0.5
			s-1.2,0.3-1.6,0.5c-0.4,0.1-1,0.3-1.6,0.5s-1.3,0.4-1.8,0.6c-0.5,0.2-1,0.4-1.5,0.6c-0.5,0.2-1,0.4-1.5,0.6
			c-0.5,0.2-0.9,0.4-1.2,0.5c-0.3,0.2-0.8,0.4-1.2,0.6c-0.5,0.2-0.9,0.5-1.2,0.6c-0.3,0.2-0.7,0.4-1.1,0.7c-0.4,0.3-0.9,0.5-1.3,0.8
			c-0.5,0.3-0.9,0.6-1.3,0.9c-0.4,0.3-0.8,0.6-1.1,0.9c-0.3,0.3-0.7,0.6-1,0.9c-0.4,0.3-0.7,0.6-1,0.9c-0.3,0.3-0.6,0.6-0.8,0.9
			c-0.3,0.3-0.5,0.6-0.7,0.9c-0.2,0.3-0.4,0.6-0.6,1c-0.2,0.4-0.3,0.7-0.4,1c-0.1,0.3-0.1,0.7-0.1,1.1c0,0.4,0,0.8,0.1,1.1
			c0,0.3,0.1,0.6,0.2,1.1c0.1,0.4,0.2,0.8,0.2,1.2c0.1,0.4,0.2,0.8,0.3,1.2c0.1,0.4,0.2,0.9,0.3,1.3c0.1,0.4,0.2,0.8,0.3,1.2
			c0.1,0.4,0.2,0.7,0.2,1c0.1,0.3,0.2,0.7,0.2,1c0.1,0.4,0.2,0.7,0.3,1.1c0.1,0.4,0.2,0.7,0.3,1.1c0.1,0.4,0.2,0.8,0.2,1.1
			c0.1,0.3,0.1,0.6,0.2,1l-4.2,15.9c0,0.4,0,0.8,0,1.3c0,0.5,0,1,0,1.6c0,0.6,0,1.1,0,1.5c0,0.4,0,0.9,0,1.6c0,0.7,0,1.3,0,1.9
			c0,0.6,0,1.2,0,1.7c0,0.5,0,1.1,0,1.8c0,0.7,0,1.3,0,2c0,0.7,0,1.3,0,1.9c0,0.6,0,1.1,0,1.5c0,0.4,0,0.9,0,1.6c0,0.7,0,1.4,0,2
			c0,0.7,0,1.3,0,2s0,1.2,0,1.7c0,0.4,0,1,0.1,1.6c0,0.6,0.1,1.2,0.1,1.9c0,0.7,0.1,1.3,0.1,1.6c0,0.4,0.1,0.8,0.1,1.2
			c0,0.4,0.1,0.9,0.2,1.4c0.1,0.5,0.1,0.9,0.2,1.3c0.1,0.4,0.1,0.7,0.2,1c0.1,0.3,0.1,0.6,0.2,1c0.1,0.3,0.2,0.7,0.3,1
			c0.1,0.3,0.3,0.6,0.6,0.9c0.3,0.3,0.6,0.5,0.8,0.7c0.3,0.2,0.6,0.5,1,0.7c0.4,0.3,0.8,0.5,1.1,0.7s0.7,0.4,1.1,0.6
			c0.4,0.2,0.8,0.4,1.2,0.6c0.4,0.2,0.8,0.4,1.1,0.5c0.3,0.1,0.7,0.3,1.2,0.5c0.5,0.2,1,0.4,1.4,0.6c0.4,0.2,0.8,0.3,1.1,0.4
			c0.3,0.1,0.6,0.2,1,0.4c0.3,0.1,0.7,0.3,1.1,0.4c0.4,0.1,0.8,0.3,1.2,0.4c0.4,0.1,0.8,0.3,1.2,0.4c0.4,0.1,0.8,0.3,1.2,0.4
			c0.4,0.1,0.8,0.2,1.2,0.4c0.4,0.1,0.8,0.2,1.2,0.4c0.4,0.1,0.7,0.2,1.1,0.3c0.3,0.1,0.7,0.2,1,0.3c0.4,0.1,0.7,0.2,1,0.3
			c0.3,0.1,0.6,0.2,1,0.3c0.3,0.1,0.7,0.2,1.1,0.3c0.4,0.1,0.8,0.2,1.1,0.3s0.8,0.2,1.2,0.3c0.4,0.1,0.8,0.2,1.2,0.3
			c0.4,0.1,0.8,0.2,1.1,0.3c0.3,0.1,0.6,0.2,0.9,0.2c0.3,0.1,0.7,0.2,1.1,0.3c0.4,0.1,0.8,0.2,1.2,0.3c0.4,0.1,0.8,0.2,1.3,0.3
			c0.5,0.1,1,0.2,1.4,0.3c0.4,0.1,0.8,0.2,1.2,0.3c0.4,0.1,0.7,0.1,1.1,0.2c0.3,0.1,0.7,0.1,1.1,0.2c0.4,0.1,0.8,0.1,1.2,0.2
			c0.4,0.1,0.8,0.1,1.1,0.2c0.4,0.1,0.8,0.1,1.1,0.2c0.4,0.1,0.7,0.1,1,0.1c0.3,0,0.6,0.1,1,0.1c0.3,0,0.7,0.1,1.1,0.1
			c0.4,0,0.8,0,1.1,0.1c0.4,0,0.7,0,1.1,0c0.4,0,0.8,0,1.2,0c0.4,0,0.8,0,1.1,0c0,0,0,0,0.1,0c0.4,0,0.7,0,1.1,0
			c0.4,0,0.8,0,1.3-0.1c0.5,0,1-0.1,1.4-0.1c0.4,0,0.9-0.1,1.3-0.2c0.5-0.1,0.9-0.1,1.3-0.2c0.4-0.1,0.8-0.2,1.2-0.3
			c0.4-0.1,0.8-0.2,1.1-0.3c0.3-0.1,0.7-0.2,1.1-0.4c0.4-0.2,0.8-0.3,1.2-0.5c0.4-0.2,0.7-0.3,1-0.5c0.3-0.2,0.6-0.3,0.9-0.5
			c0.3-0.2,0.7-0.4,1.1-0.7c0.4-0.2,0.7-0.5,1-0.7c0.3-0.2,0.6-0.4,0.8-0.6c0.3-0.2,0.6-0.5,0.9-0.7s0.6-0.5,0.9-0.8
			c0.2-0.2,0.5-0.5,0.8-0.8s0.6-0.6,0.9-0.8c0.3-0.3,0.5-0.5,0.7-0.7c0.2-0.2,0.5-0.5,0.8-0.8c0.3-0.3,0.5-0.6,0.7-0.8
			c0.2-0.2,0.5-0.5,0.8-0.9c0.3-0.3,0.6-0.7,0.8-1c0.3-0.3,0.5-0.6,0.7-0.9c0.2-0.3,0.4-0.6,0.7-0.9c0.3-0.3,0.5-0.7,0.8-1.1
			c0.3-0.4,0.6-0.8,0.8-1.2c0.3-0.4,0.5-0.7,0.7-1c0.2-0.3,0.4-0.6,0.7-1c0.2-0.3,0.4-0.7,0.6-1c0.2-0.3,0.4-0.6,0.6-1
			c0.2-0.4,0.4-0.7,0.7-1.1c0.2-0.4,0.5-0.8,0.7-1.2c0.2-0.4,0.4-0.8,0.7-1.2c0.2-0.4,0.4-0.8,0.6-1.2c0.2-0.4,0.4-0.8,0.6-1.3
			c0.2-0.5,0.4-0.9,0.6-1.2s0.3-0.7,0.5-1.1c0.2-0.4,0.3-0.8,0.5-1.2s0.3-0.8,0.4-1.1c0.1-0.3,0.2-0.7,0.4-1
			c0.1-0.3,0.3-0.8,0.4-1.3c0.2-0.5,0.3-0.9,0.4-1.3c0.1-0.4,0.2-0.8,0.3-1.1c0.1-0.3,0.2-0.7,0.3-1c0.1-0.3,0.2-0.7,0.3-1.1
			c0.1-0.4,0.2-0.8,0.3-1.3c0.1-0.4,0.2-0.8,0.3-1.2c0.1-0.4,0.2-0.8,0.3-1.4c0.1-0.5,0.2-1,0.3-1.5c0.1-0.5,0.2-0.9,0.3-1.3
			c0.1-0.4,0.2-0.8,0.2-1.1c0.1-0.4,0.2-0.7,0.2-1.1c0.1-0.4,0.2-0.7,0.2-1.1c0.1-0.4,0.2-0.8,0.2-1.1c0.1-0.4,0.2-0.8,0.3-1.3
			c0.1-0.5,0.2-0.9,0.3-1.4c0.1-0.4,0.2-0.9,0.3-1.2c0.1-0.4,0.2-0.8,0.2-1.2c0.1-0.4,0.2-0.8,0.2-1.1c0.1-0.3,0.1-0.7,0.2-1
			c0.1-0.3,0.1-0.7,0.2-1.1c0.1-0.4,0.2-0.8,0.3-1.3c0.1-0.5,0.2-0.9,0.3-1.4s0.2-0.8,0.3-1.2c0.1-0.4,0.2-0.7,0.2-1
			c0.1-0.3,0.2-0.7,0.3-1.1c0.1-0.4,0.2-0.8,0.3-1.2s0.2-0.7,0.2-1c0.1-0.3,0.1-0.7,0.2-1.1c0.1-0.4,0.2-0.9,0.3-1.4
			s0.2-0.9,0.3-1.3c0.1-0.4,0.1-0.8,0.2-1.2c0.1-0.4,0.1-0.8,0.2-1.3c0.1-0.5,0.1-0.9,0.2-1.2c0-0.3,0.1-0.7,0.1-1
			c0-0.3,0.1-0.6,0.1-1c0-0.3,0.1-0.6,0.1-0.9c0-0.3,0-0.7,0-1s0-0.7,0-1.1c0-0.4,0-0.7-0.1-1.1c0-0.4-0.1-0.8-0.1-1.1
			c-0.1-0.3-0.1-0.7-0.2-1c-0.1-0.4-0.2-0.7-0.3-1c-0.1-0.3-0.3-0.7-0.4-1c-0.2-0.3-0.3-0.6-0.5-0.9c-0.2-0.3-0.4-0.5-0.7-0.8
			c-0.2-0.2-0.4-0.5-0.7-0.7c-0.2-0.2-0.4-0.5-0.7-0.7c-0.2-0.2-0.5-0.5-0.7-0.7c-0.3-0.2-0.5-0.5-0.8-0.7c-0.3-0.2-0.6-0.5-0.9-0.8
			c-0.4-0.3-0.7-0.6-1.1-0.8c-0.4-0.3-0.7-0.5-1-0.7c-0.3-0.2-0.6-0.4-0.9-0.6c-0.3-0.2-0.7-0.4-1-0.6c-0.3-0.2-0.7-0.4-1.1-0.6
			c-0.4-0.2-0.8-0.4-1.2-0.6c-0.4-0.2-0.8-0.4-1.1-0.5s-0.7-0.3-1-0.4s-0.7-0.3-1.1-0.4c-0.4-0.1-0.7-0.3-1-0.4
			c-0.3-0.1-0.6-0.2-1-0.3c-0.3-0.1-0.7-0.2-1-0.3c-0.3-0.1-0.7-0.2-1.1-0.4c-0.4-0.1-0.8-0.3-1.2-0.4c-0.4-0.1-0.8-0.2-1.2-0.3
			c-0.4-0.1-0.9-0.2-1.4-0.3s-1.1-0.3-1.7-0.4c-0.6-0.1-1-0.2-1.4-0.3c-0.4-0.1-0.8-0.1-1.1-0.2c-0.3-0.1-0.7-0.1-1-0.2
			c-0.3,0-0.7-0.1-1.1-0.1s-0.8-0.1-1.3-0.2c-0.5-0.1-0.9-0.1-1.3-0.1c-0.4,0-0.8-0.1-1.1-0.1c-0.4,0-0.8-0.1-1.1-0.1
			c-0.4,0-0.7-0.1-1-0.1c-0.3,0-0.7,0-1.1-0.1c-0.5,0-0.9,0-1.5-0.1c-0.5,0-1,0-1.5-0.1c-0.5,0-1,0-1.6,0c-0.6,0-1.1,0-1.4,0
			c-0.2,0-0.5,0-0.8,0C151.6,71.2,151.5,71.2,151.3,71.2z"/>
	</g>
	<g>
		<path class="st2" d="M154.5,71.9c-12.3,0-23.5,1.3-33.4,3.9c-9.6,2.6-15.3,5.8-16.9,9.4c-1.3,3.7,1.9,6.8,9.5,9.5
			c8,2.6,18.1,3.9,30.5,3.9c12.3,0,23.5-1.3,33.5-3.9c9.6-2.6,15.3-5.8,16.9-9.4c1.3-3.7-1.9-6.8-9.5-9.5
			C177.1,73.3,166.9,71.9,154.5,71.9"/>
	</g>
	<g>
		<path class="st3" d="M178.8,46.6l-13.1,5.6l18.6,19.3c2.5,2.8,4.1,4.6,4.8,5.5c1.2,1.3,2.9,3.5,5.2,6.5c0.6,0.8,1,1.1,1.1,1.1
			c1.2-10.3,1.2-17.1-0.2-20.5c-0.1-0.5-0.8-1.3-2-2.6L178.8,46.6"/>
	</g>
	<g>
		<path class="st3" d="M157.1,54.4l-18,4.5c3.1,3.7,14.6,16.6,34.6,38.7l13.5,14.4c1,1,2.1,2,3.2,2.9c0.4,0.3,0.8,0.5,1.1,0.4
			c0.2,0,0.3-0.1,0.3-0.3l0.7-2.1l3.3-11.1c0.6-2.6,0.6-4.4,0.1-5.5l-17.2-19.9c-2-2.2-3.7-3.9-5.1-5.2c-5-4.7-8.1-7.7-9.3-9
			C162.3,60,159.9,57.4,157.1,54.4"/>
	</g>
	<g>
		<path class="st4" d="M104.1,148.7l3.9,4.9l0.4,0.2c0.2,0.1,0.6,0.3,1.1,0.5c0.5,0.2,0.9,0.4,1.1,0.5c0.2,0.1,0.5,0.2,0.9,0.4
			c0.4,0.1,1,0.4,2,0.8c1,0.4,1.7,0.6,2.1,0.8c0.5,0.2,0.9,0.3,1.3,0.5c0.4,0.1,1.1,0.4,2,0.7c0.9,0.3,1.6,0.6,2,0.7
			c0.4,0.1,0.8,0.3,1.1,0.4c0.4,0.1,0.8,0.3,1.3,0.4c0.5,0.2,1.3,0.4,2.4,0.8c1.1,0.4,2,0.7,2.6,0.8c0.6,0.2,1.2,0.4,1.7,0.5
			c0.5,0.2,1.3,0.4,2.3,0.7s1.8,0.6,2.5,0.8c0.7,0.2,1.3,0.4,1.9,0.6c0.6,0.2,1.3,0.4,2,0.6c0.7,0.2,1.4,0.4,2.1,0.5
			c0.7,0.2,1.4,0.3,2.1,0.5c0.7,0.2,1.3,0.3,1.9,0.4c0.6,0.1,1.2,0.2,1.9,0.3c0.7,0.1,1.4,0.2,2.1,0.3c0.7,0.1,1.4,0.2,2,0.3
			c0.7,0.1,1.3,0.1,2,0.1c0.7,0,1.3,0,2,0c0.7,0,1.4,0,2.1-0.1c0.7-0.1,1.5-0.2,2.2-0.3s1.4-0.3,2-0.5c0.2-0.1,0.4-0.1,0.5-0.2
			c0.3-0.1,0.4-0.2,0.4-0.3c0-0.1-0.1-0.3-0.3-0.5c-0.2-0.2-0.3-0.3-0.5-0.5c-0.2-0.2-0.4-0.4-0.6-0.5c-0.2-0.2-0.4-0.3-0.6-0.5
			c-0.2-0.2-0.5-0.4-0.8-0.6s-0.6-0.4-0.8-0.5s-0.4-0.3-0.6-0.4c-0.2-0.1-0.4-0.2-0.6-0.4c-0.2-0.1-0.4-0.3-0.7-0.4
			c-0.2-0.1-0.5-0.3-0.7-0.4c-0.2-0.1-0.5-0.3-0.7-0.4c-0.3-0.1-0.7-0.4-1.3-0.7c-0.6-0.3-1.2-0.6-1.6-0.9c-0.5-0.2-0.9-0.5-1.4-0.7
			c-0.5-0.2-1-0.5-1.5-0.7c-0.5-0.2-1-0.4-1.5-0.6c-0.5-0.2-1-0.4-1.6-0.6c-0.6-0.2-1.1-0.4-1.7-0.6c-0.6-0.2-1.2-0.4-1.8-0.6
			c-0.6-0.2-1.3-0.4-1.9-0.6c-0.7-0.2-1.3-0.4-1.9-0.5c-0.6-0.2-1.3-0.3-2-0.5c-0.7-0.2-1.5-0.4-2.1-0.5c-0.7-0.2-1.3-0.3-2-0.5
			c-0.6-0.2-1.3-0.3-1.9-0.5c-0.7-0.2-1.3-0.3-2-0.4s-1.5-0.3-2.5-0.5c-1-0.2-1.8-0.3-2.2-0.4c-0.5-0.1-0.9-0.2-1.3-0.2
			c-0.4-0.1-1-0.2-1.8-0.3c-0.8-0.1-1.4-0.2-1.8-0.2c-0.4,0-0.9-0.1-1.3-0.1c-0.4,0-0.9-0.1-1.6-0.1c-0.7-0.1-1.2-0.1-1.6-0.1
			c-0.4,0-0.7-0.1-1.1-0.1c-0.4,0-0.7,0-1.1-0.1c-0.4,0-0.7,0-0.9-0.1c-0.3,0-0.6,0-1,0c-0.4,0-0.9,0-1.4-0.1c-0.5,0-0.9,0-1.2,0
			c-0.3,0-0.5,0-0.8,0c-0.3,0-0.7,0-1.2,0c-0.5,0-0.9,0-1.1,0C104.5,148.7,104.3,148.7,104.1,148.7L104.1,148.7z"/>
	</g>
	<g>
		<path class="st4" d="M104,149c-0.6,0.3-1.1,0.5-1.5,0.8c-0.4,0.2-0.5,0.4-0.4,0.6c0.1,0.1,0.2,0.3,0.4,0.5
			c0.1,0.2,0.3,0.4,0.5,0.5c0.2,0.2,0.4,0.4,0.6,0.6c0.2,0.2,0.4,0.4,0.6,0.6c0.2,0.2,0.4,0.3,0.6,0.5c0.2,0.2,0.5,0.4,0.9,0.6
			c0.4,0.3,0.7,0.5,1,0.6c0.3,0.2,0.6,0.3,0.9,0.5c0.3,0.2,0.7,0.3,1,0.5c0.4,0.2,0.8,0.4,1.2,0.6c0.4,0.2,0.9,0.5,1.4,0.7
			s1.1,0.6,1.7,0.8c0.6,0.3,1.2,0.6,1.9,0.9c0.7,0.3,1.3,0.6,1.9,0.9c0.6,0.3,1.2,0.6,2,0.9c0.8,0.3,1.5,0.7,2.3,1
			c0.8,0.3,1.5,0.6,2.4,1c0.8,0.3,1.7,0.7,2.6,1c0.9,0.3,1.9,0.7,2.9,1c1,0.3,2.1,0.7,3.3,1s2.2,0.6,2.9,0.8
			c0.7,0.2,1.3,0.3,1.6,0.4l14.1,0.6c0.2,0,0.5,0.1,0.9,0.1c0.4,0.1,0.9,0.1,1.4,0.2c0.5,0.1,1.1,0.1,1.9,0.2
			c0.8,0.1,1.6,0.1,2.5,0.1c0.9,0,1.7,0,2.5-0.1c0.7,0,1.4-0.1,2-0.2c0.6-0.1,1.2-0.2,1.7-0.4c0.4-0.1,0.7-0.2,1.1-0.4
			c0.1-0.1,0.3-0.1,0.4-0.2c0.5-0.2,0.8-0.4,0.9-0.7c0.1-0.3,0.1-0.5-0.2-0.7c-0.2-0.2-0.4-0.4-0.6-0.6c-0.2-0.1-0.4-0.3-0.6-0.4
			c-0.2-0.2-0.4-0.3-0.6-0.4c-0.2-0.1-0.5-0.3-0.8-0.5c-0.3-0.2-0.5-0.3-0.7-0.4c-0.2-0.1-0.5-0.2-0.8-0.4c-0.4-0.2-0.8-0.4-1.1-0.6
			c-0.4-0.2-0.7-0.3-0.9-0.4c-0.2-0.1-0.5-0.2-0.8-0.3c-0.3-0.1-0.7-0.3-1.4-0.6c-0.7-0.3-1.2-0.5-1.5-0.6c-0.3-0.1-0.7-0.3-1.1-0.5
			c-0.4-0.2-0.9-0.4-1.5-0.6c-0.6-0.2-1.1-0.5-1.6-0.7c-0.5-0.2-1-0.4-1.5-0.6c-0.5-0.2-1.1-0.4-1.8-0.7c-0.7-0.3-1.5-0.6-2.4-0.9
			c-0.9-0.3-1.5-0.6-2-0.7c-0.4-0.2-0.9-0.3-1.3-0.5c-0.4-0.1-1.2-0.4-2.2-0.7c-1-0.3-1.8-0.6-2.4-0.7c-0.5-0.2-1.1-0.3-1.7-0.5
			c-0.6-0.2-1.2-0.3-1.8-0.5c-0.6-0.2-1.6-0.4-3-0.8c-1.3-0.4-2.4-0.6-3.1-0.8c-0.8-0.2-1.5-0.4-2.3-0.6c-0.8-0.2-1.6-0.4-2.4-0.6
			c-0.8-0.2-2-0.4-3.7-0.8c-1.7-0.3-2.9-0.5-3.8-0.6c-0.9-0.1-1.7-0.2-2.5-0.2c-0.8-0.1-1.6-0.1-2.4-0.1s-1.6,0-2.4,0.1
			c-0.8,0.1-1.7,0.2-2.6,0.4c-0.7,0.2-1.4,0.4-1.9,0.6C104.2,148.9,104.1,149,104,149z"/>
	</g>
	<g>
		<path class="st2" d="M101.8,146.7c-2.6,1.2-1.9,3.2,2,6.1c4.1,2.9,10.4,6,18.8,9c8.5,3,16.7,5.3,24.6,6.7
			c7.9,1.3,13.3,1.5,16.1,0.4c2.6-1.1,2-3.1-1.8-6c-4.1-2.9-10.3-6-18.7-9c-8.5-3-16.7-5.3-24.6-6.7
			C110.2,145.8,104.8,145.6,101.8,146.7"/>
	</g>
	<g>
		<path class="st2" d="M104.7,149.2c-2.3,1.3-1.4,3.3,2.4,5.9c4.1,2.6,10.2,5.1,18,7.5c8,2.3,15.6,3.9,23,4.7
			c7.3,0.7,12.1,0.5,14.6-0.8c2.2-1.4,1.4-3.3-2.4-5.8c-4.1-2.6-10.1-5.1-18-7.5c-8-2.3-15.6-3.9-23-4.7
			C112.1,147.6,107.2,147.9,104.7,149.2"/>
	</g>
	<g>
		<path class="st5" d="M95.8,57.1c-0.2,0.4-0.3,0.9-0.5,1.5c-0.2,0.5-0.3,1.1-0.4,1.5c-0.1,0.5-0.2,1-0.2,1.5
			c-0.1,0.5-0.1,1-0.1,1.4c0,0.5,0.1,0.9,0.2,1.3c0.2,0.4,0.3,0.8,0.6,1.3c0.2,0.5,0.5,1,0.8,1.6c0.3,0.6,0.6,1.1,0.8,1.5
			c0.2,0.4,0.5,0.9,0.8,1.4c0.3,0.5,0.6,1,0.9,1.6c0.3,0.5,0.6,1,0.9,1.5c0.3,0.5,0.6,1,0.9,1.6c0.3,0.6,0.6,1.1,0.9,1.7
			c0.3,0.5,0.6,1.2,1.1,2c0.4,0.8,0.8,1.5,1.2,2.2c0.4,0.7,0.7,1.3,1.1,2c0.4,0.7,0.8,1.4,1.2,2c0.4,0.6,0.8,1.4,1.3,2.3
			c0.5,0.9,1.1,1.9,1.9,3.1c0.7,1.2,1.3,2.2,1.7,2.9c0.4,0.7,0.8,1.3,1.2,1.9c0.4,0.6,0.9,1.4,1.5,2.4c0.6,1,1.2,1.9,1.7,2.6
			c0.5,0.8,1.1,1.7,1.7,2.6c0.6,1,1.3,2,2,3.1c0.7,1.1,1.3,2.1,2,3c0.7,1,1.3,1.9,2,2.9c0.7,1,1.4,2,2.1,2.9c0.7,0.9,1.5,2,2.4,3.2
			c0.9,1.2,1.6,2.2,2.2,2.9c0.6,0.8,1.2,1.6,1.9,2.6c0.7,0.9,1.8,2.3,3.1,4.1c1.4,1.8,2.4,3.1,3.1,4.1c0.7,0.9,1.4,1.9,2.1,2.7
			c0.7,0.9,1.4,1.9,2.3,3c0.8,1.1,1.9,2.4,3.2,4c1.3,1.6,2.4,2.9,3.2,3.8c0.8,0.9,1.6,1.7,2.4,2.5c0.7,0.8,1.8,1.7,3.1,3
			c1.3,1.2,2.3,2.1,3,2.7c0.7,0.6,1.5,1.2,2.3,1.8c0.8,0.6,1.8,1.2,2.8,1.9s2.5,1.4,4.3,2.2c1.2,0.6,2.1,0.8,2.6,0.8
			c0.2,0,0.4-0.1,0.4-0.2c0.2-0.4,0.5-0.8,0.7-1.1c0.2-0.4,0.4-0.8,0.7-1.3c0.3-0.5,0.6-1.3,1.2-2.4c0.5-1.1,0.9-2,1.2-2.7
			c0.3-0.7,0.5-1.4,0.7-2.1c0.2-0.7,0.3-1.4,0.4-2.2c0.1-0.8-0.1-1.5-0.4-2c-0.3-0.5-0.6-1-0.8-1.4c-0.3-0.5-0.5-0.9-0.7-1.3
			c-0.2-0.4-0.5-0.8-0.9-1.4c-0.3-0.6-0.7-1.1-1.1-1.7s-0.8-1.3-1.3-2.1c-0.5-0.8-0.9-1.4-1.3-1.9c-0.3-0.5-0.7-1.1-1.2-1.7
			c-0.5-0.7-1.1-1.6-2-2.9c-0.8-1.2-1.5-2.2-2-2.9c-0.5-0.7-1-1.4-1.5-2.2c-0.6-0.8-1.4-2-2.4-3.5c-1.1-1.5-1.8-2.7-2.3-3.4
			c-0.5-0.7-1-1.5-1.6-2.4c-0.6-0.9-1.6-2.3-3-4.4c-1.4-2.1-2.4-3.6-3-4.6c-0.6-0.9-1.3-2-2-3.1c-0.7-1.1-1.4-2.1-2.1-3.1
			c-0.6-1-1.6-2.4-2.7-4.2c-1.2-1.8-2.1-3.2-2.7-4.1c-0.6-0.9-1.3-1.9-2-3c-0.7-1.1-1.5-2.2-2.2-3.4c-0.8-1.1-1.9-2.9-3.5-5.2
			c-1.6-2.3-2.8-4-3.5-5.1c-0.8-1.1-1.6-2.2-2.4-3.4c-0.8-1.2-1.6-2.3-2.4-3.5c-0.8-1.2-1.9-2.8-3.4-5.1c-1.5-2.2-2.5-3.9-3.2-5
			c-0.7-1.1-1.2-2.1-1.8-3l-19.1-0.4L95.8,57.1z"/>
	</g>
	<g>
		<path class="st6" d="M96,53.5c-0.3,5.6-0.1,9.7,0.7,12.3c0.3,1,0.6,1.8,1,2.6c1.9,3.3,3.5,5.9,4.8,8l22.9,31.2l14.9,19.7
			c4.3,5.7,8.3,10.5,12.1,14.5c7.3,7.8,13.9,12.9,19.6,15.3c0.4,0.1,0.8-0.1,1.2-0.5l3.6-5.2c2.3-3.8,3.5-6.4,3.7-7.7
			c0-0.4-0.1-0.8-0.3-1.1l-2.2-3.1c-7.1-9-14.2-18.4-21.4-28.2L111.9,54L96,53.3"/>
	</g>
	<g>
		<path class="st7" d="M181.1,28.9c7.4,2.2,9.4,4.9,5.9,8.3c-3.9,4-11,7.6-21.5,11c-10.2,3.2-21.2,5.3-33.2,6.4
			c-3.9,0.3-7.6,0.5-11,0.5c-7.4,0-13.6-0.7-18.8-2.1c-3.6-1-5.9-2.2-7-3.5l0,0l-0.7-2.2h0c0.1-0.8,0.7-1.7,1.6-2.6l0,0
			c3.8-4,11-7.6,21.5-11c10.2-3.2,21.2-5.3,33.2-6.4c3.9-0.3,7.6-0.5,11-0.5C169.5,26.8,175.8,27.5,181.1,28.9z M190.9,41.4
			c0.8,4,1.4,6.6,1.5,7.8c0.9,5.7,1.5,12.6,1.9,20.8c0.2,16.7-1.3,31.9-4.7,45.6c-2.6,10.3-6.4,20-11.5,29
			c-2.4,4.8-6.2,10.4-11.3,16.6l0,0c-1.1-1.2-2.6-2.3-4.5-3.5c-5.8-3.5-13.9-6.6-24.2-9.4c-10.6-2.7-19.7-4.1-27.5-4.2l-0.1,0
			c-2.5,0-4.6,0.2-6.4,0.5h0c1.1-7.6,1.9-14.7,2.3-21.3c0.4-4.6,0.4-10.3,0-16.8c-0.7-10.4-1.7-19.1-3.2-26
			c-2.4-11-4.2-18.6-5.3-22.9h0c5.6,2.2,13.4,3.3,23.5,3.4c14.1-0.1,28.2-2.1,42.2-5.9C176.6,51,185.8,46.5,190.9,41.4L190.9,41.4
			L190.9,41.4z M110.1,149.7c11.2,0.2,23.5,2.6,37,7.2c7.7,2.8,12.8,5.4,15.4,7.8l0.4,0.5c-0.4,0.2-0.9,0.4-1.5,0.5
			c-1.4,0.3-3.1,0.4-5.3,0.4h0c-11.2-0.2-23.5-2.6-37-7.2c-7.7-2.8-12.8-5.4-15.4-7.8l-0.4-0.5c0.2-0.2,0.7-0.3,1.5-0.5
			C106.1,149.8,107.9,149.7,110.1,149.7L110.1,149.7z M120.2,26.9c-13.2,3.8-22.3,8.2-27.5,13.3l0,0c-0.2,0.2-0.4,0.4-0.5,0.6l0,0
			c-3.3,3.9-4,7.5-2.1,10.7h0l2.3,7.9c0.4,1.4,2.2,9.2,5.4,23.4c1.3,6.3,2.2,14.3,2.8,23.8c0.2,4.2,0.3,8.1,0.2,11.5
			c-0.1,2.8-0.3,6.7-0.8,11.9c-0.3,3.4-0.9,8.3-1.8,14.8c0,0.3-0.1,0.6-0.1,0.9l0,0l0,0l-0.4,2.3c-0.1,0.4-0.1,0.8-0.1,1.2
			c0,0.7,0.1,1.5,0.3,2.3c0.2,0.7,0.7,1.5,1.2,2.3c0.2,0.3,0.7,0.9,1.3,1.6c0.4,0.4,0.7,0.7,0.9,1h0c0.7,0.6,1.6,1.1,2.5,1.7
			c5.8,3.5,13.9,6.6,24.3,9.4c10.6,2.7,19.7,4.1,27.5,4.1c3.5,0,6.3-0.3,8.3-1h0c0.6-0.2,1.2-0.5,1.7-0.8c0.6-0.3,1.1-0.8,1.7-1.3
			c0.4-0.3,0.8-0.6,1.1-0.9h0c0.8-0.9,1.5-1.7,2.2-2.5h0c0,0,0,0,0,0h0c3.5-4.1,6-7.4,7.5-10c8.2-12.5,13.8-25.3,16.9-38.2
			c3.6-14.4,5.2-30.2,4.9-47.5c-0.4-8.8-1.1-16.2-2-22c-0.8-4.7-1.7-8.8-2.7-12.3h0c-0.5-1.6-0.9-2.5-1-2.8c-0.8-1.7-1.6-3-2.4-3.9
			c-0.7-0.9-1.7-1.8-2.9-2.6h0c-5.6-3.3-14.5-4.9-26.8-5C148,21.1,134,23.1,120.2,26.9z"/>
	</g>
	<g>
		<path class="st1" d="M143.8,14.1c-0.1,0-0.3,0-0.4,0c-0.1,0-0.3,0-0.4,0c-0.2,0-0.3,0-0.4,0c-0.1,0-0.3,0-0.4,0
			c-0.1,0-0.3,0-0.4,0.1c-0.1,0-0.3,0-0.4,0.1c-0.1,0-0.3,0.1-0.4,0.1c-0.1,0-0.3,0.1-0.4,0.1c-0.1,0-0.3,0.1-0.4,0.1
			c-0.1,0.1-0.3,0.1-0.4,0.2c-0.1,0.1-0.3,0.1-0.4,0.2c-0.1,0.1-0.3,0.1-0.4,0.2c-0.1,0.1-0.2,0.1-0.4,0.2c-0.1,0.1-0.3,0.2-0.4,0.2
			c-0.1,0.1-0.3,0.2-0.4,0.3c-0.1,0.1-0.3,0.2-0.4,0.3c-0.1,0.1-0.3,0.2-0.3,0.3c-0.1,0.1-0.2,0.1-0.3,0.2c-0.1,0.1-0.2,0.1-0.3,0.2
			c-0.1,0.1-0.2,0.2-0.3,0.2c-0.1,0.1-0.2,0.2-0.2,0.2c-0.1,0.1-0.1,0.2-0.2,0.2c-0.1,0.1-0.2,0.2-0.2,0.3c-0.1,0.1-0.2,0.2-0.2,0.3
			c-0.1,0.1-0.2,0.2-0.2,0.3c-0.1,0.1-0.2,0.3-0.3,0.4c-0.1,0.1-0.2,0.3-0.3,0.4c-0.1,0.1-0.2,0.3-0.2,0.4c-0.1,0.1-0.1,0.2-0.2,0.4
			c-0.1,0.1-0.1,0.2-0.2,0.3c0,0.1-0.1,0.2-0.1,0.3c0,0.1-0.1,0.2-0.1,0.3c0,0.1-0.1,0.2-0.1,0.3c0,0.1-0.1,0.2-0.1,0.4
			c0,0.1-0.1,0.3-0.1,0.4c0,0.1-0.1,0.3-0.1,0.4c0,0.2-0.1,0.3-0.1,0.4c0,0.1,0,0.2-0.1,0.4c0,0.1,0,0.3-0.1,0.4c0,0.1,0,0.3,0,0.4
			c0,0.1,0,0.3,0,0.4c0,0.2,0,0.3,0,0.5c0,0.2,0,0.3,0,0.4c0,0.1,0,0.2,0,0.3c0,0.1,0,0.2,0,0.3c0,0.1,0,0.2,0,0.3
			c0,0.1,0,0.2,0,0.4c0,0.1,0,0.2,0.1,0.4c0,0.1,0,0.2,0.1,0.3c0,0.1,0,0.2,0.1,0.3c0,0.1,0.1,0.3,0.1,0.4c0,0.1,0.1,0.3,0.1,0.4
			c0,0.1,0.1,0.2,0.1,0.3c0,0.1,0.1,0.2,0.1,0.3c0,0.1,0.1,0.2,0.1,0.3c0,0.1,0.1,0.3,0.2,0.4c0.1,0.1,0.1,0.3,0.2,0.4
			c0,0.1,0.1,0.2,0.1,0.3c0,0.1,0.1,0.2,0.2,0.3c0.1,0.1,0.1,0.2,0.2,0.3c0,0.1,0.1,0.2,0.2,0.3c0.1,0.1,0.1,0.2,0.2,0.4
			c0.1,0.1,0.1,0.3,0.2,0.4c0.1,0.1,0.1,0.2,0.2,0.3c0.1,0.1,0.1,0.2,0.2,0.3c0.1,0.1,0.1,0.2,0.2,0.3s0.1,0.2,0.2,0.4
			c0.1,0.1,0.1,0.2,0.2,0.4c0.1,0.1,0.1,0.2,0.2,0.3c0.1,0.1,0.1,0.2,0.2,0.3c0.1,0.1,0.1,0.2,0.2,0.3c0.1,0.1,0.1,0.2,0.2,0.3
			c0.1,0.1,0.1,0.2,0.2,0.3c0.1,0.1,0.1,0.2,0.2,0.3c0.1,0.1,0.1,0.2,0.2,0.3c0.1,0.1,0.1,0.3,0.2,0.4c0.1,0.1,0.1,0.3,0.2,0.4
			c0.1,0.1,0.1,0.2,0.2,0.3c0.1,0.1,0.1,0.2,0.2,0.3c0.1,0.1,0.1,0.2,0.2,0.3c0.1,0.1,0.1,0.2,0.2,0.3c0.1,0.1,0.1,0.2,0.2,0.3
			s0.1,0.2,0.2,0.3c0,0.1,0.1,0.2,0.2,0.4c0.1,0.1,0.1,0.3,0.2,0.4c0.1,0.1,0.1,0.3,0.2,0.4c0,0.1,0.1,0.2,0.1,0.3
			c0.1,0.1,0.1,0.2,0.1,0.4c0,0.1,0.1,0.2,0.1,0.3c0,0.1,0.1,0.2,0.1,0.3c0,0.1,0.1,0.2,0.1,0.4c0.1,0.2,0.1,0.3,0.2,0.5
			c0,0.1,0.1,0.3,0.1,0.4c0,0.1,0.1,0.2,0.1,0.4c0,0.1,0.1,0.3,0.1,0.4c0,0.1,0.1,0.3,0.1,0.4c0,0.1,0.1,0.3,0.1,0.4
			c0,0.2,0.1,0.3,0.1,0.5c0,0.1,0.1,0.3,0.1,0.4c0,0.1,0.1,0.3,0.1,0.4c0,0.2,0.1,0.3,0.1,0.5c0,0.2,0.1,0.3,0.1,0.4
			c0,0.1,0.1,0.3,0.1,0.4l1-0.4l0.1-0.1c0.1-0.1,0.2-0.1,0.3-0.2c0.1-0.1,0.2-0.1,0.3-0.2c0.1-0.1,0.2-0.1,0.3-0.2
			c0.1-0.1,0.2-0.1,0.3-0.2s0.2-0.1,0.3-0.2c0.1-0.1,0.2-0.2,0.3-0.2c0.1-0.1,0.2-0.2,0.3-0.2c0.1-0.1,0.2-0.1,0.3-0.2
			c0.1-0.1,0.2-0.1,0.3-0.2c0.1-0.1,0.2-0.1,0.3-0.2c0.1-0.1,0.2-0.1,0.3-0.2c0.1-0.1,0.2-0.1,0.3-0.2c0.1-0.1,0.2-0.1,0.3-0.2
			c0.1-0.1,0.2-0.2,0.3-0.2c0.1-0.1,0.2-0.2,0.3-0.3c0.1-0.1,0.2-0.2,0.3-0.3c0.1-0.1,0.2-0.2,0.3-0.3c0.1-0.1,0.2-0.2,0.3-0.3
			c0.1-0.1,0.2-0.2,0.3-0.3c0.1-0.1,0.2-0.2,0.3-0.3c0.1-0.1,0.2-0.2,0.3-0.3c0.1-0.1,0.2-0.2,0.3-0.3c0.1-0.1,0.2-0.2,0.3-0.3
			c0.1-0.1,0.2-0.2,0.3-0.3c0.1-0.1,0.2-0.2,0.3-0.3c0.1-0.1,0.2-0.2,0.2-0.3c0.1-0.1,0.2-0.2,0.2-0.3c0.1-0.1,0.2-0.2,0.3-0.3
			c0.1-0.1,0.2-0.2,0.3-0.3c0.1-0.1,0.2-0.2,0.3-0.3c0.1-0.1,0.2-0.2,0.3-0.3c0.1-0.1,0.2-0.2,0.2-0.3c0.1-0.1,0.1-0.2,0.2-0.3
			c0.1-0.1,0.2-0.2,0.3-0.4c0.1-0.1,0.2-0.3,0.3-0.4c0.1-0.1,0.1-0.2,0.2-0.3c0.1-0.1,0.2-0.3,0.3-0.4c0.1-0.1,0.2-0.3,0.2-0.4
			c0.1-0.1,0.1-0.2,0.2-0.3c0.1-0.1,0.1-0.2,0.2-0.3c0.1-0.1,0.1-0.2,0.2-0.4c0.1-0.1,0.1-0.2,0.2-0.4c0.1-0.1,0.1-0.3,0.2-0.4
			c0.1-0.1,0.1-0.3,0.2-0.4c0-0.1,0.1-0.2,0.1-0.3c0-0.1,0.1-0.2,0.1-0.4s0.1-0.3,0.1-0.4c0-0.1,0.1-0.2,0.1-0.4
			c0-0.1,0.1-0.2,0.1-0.4c0-0.1,0.1-0.3,0.1-0.5c0.1-0.2,0.1-0.4,0.1-0.5s0.1-0.3,0.1-0.5c0-0.2,0.1-0.3,0.1-0.5
			c0-0.1,0-0.3,0.1-0.4c0-0.1,0-0.3,0-0.4c0-0.1,0-0.2,0-0.4c0-0.1,0-0.3,0-0.4c0-0.1,0-0.3,0-0.4c0-0.2,0-0.3,0-0.4
			c0-0.1,0-0.2,0-0.3c0-0.1,0-0.2,0-0.4c0-0.2,0-0.3,0-0.4c0-0.1,0-0.3,0-0.4c0-0.1,0-0.2,0-0.4c0-0.1,0-0.2,0-0.3
			c0-0.1,0-0.2,0-0.4c0-0.1,0-0.3-0.1-0.5c0-0.2-0.1-0.4-0.1-0.5c0-0.2-0.1-0.3-0.1-0.5s-0.1-0.3-0.1-0.4s-0.1-0.2-0.1-0.4
			c0-0.1-0.1-0.3-0.2-0.5c-0.1-0.2-0.1-0.4-0.2-0.5c0-0.1-0.1-0.2-0.1-0.3c0-0.1-0.1-0.2-0.2-0.4c-0.1-0.2-0.1-0.3-0.2-0.5
			c-0.1-0.1-0.1-0.3-0.2-0.4c-0.1-0.1-0.1-0.3-0.2-0.4c-0.1-0.1-0.2-0.3-0.2-0.4c-0.1-0.2-0.2-0.3-0.3-0.5c-0.1-0.2-0.2-0.3-0.3-0.4
			c-0.1-0.1-0.2-0.2-0.2-0.3c-0.1-0.1-0.2-0.2-0.2-0.3c-0.1-0.1-0.2-0.2-0.3-0.3c-0.1-0.1-0.2-0.2-0.3-0.3c-0.1-0.1-0.2-0.2-0.2-0.3
			c-0.1-0.1-0.2-0.2-0.3-0.3c-0.1-0.1-0.2-0.2-0.3-0.3c-0.1-0.1-0.2-0.2-0.3-0.2c-0.1-0.1-0.2-0.2-0.3-0.2c-0.1-0.1-0.3-0.2-0.4-0.3
			c-0.1-0.1-0.3-0.2-0.4-0.2c-0.1-0.1-0.2-0.1-0.4-0.2c-0.1-0.1-0.3-0.2-0.4-0.2c-0.1-0.1-0.3-0.1-0.4-0.2c-0.1-0.1-0.2-0.1-0.3-0.1
			c-0.1,0-0.2-0.1-0.4-0.2s-0.3-0.1-0.4-0.2c-0.1,0-0.2-0.1-0.4-0.1c-0.1,0-0.2-0.1-0.4-0.1c-0.1,0-0.3-0.1-0.4-0.1
			c-0.1,0-0.3-0.1-0.4-0.1c-0.1,0-0.3,0-0.4-0.1c-0.2,0-0.3,0-0.5-0.1c-0.1,0-0.2,0-0.2,0C143.9,14.1,143.8,14.1,143.8,14.1z"/>
	</g>
	<g>
		<path class="st1" d="M95.1,6.8c-0.9,0.8-1.8,1.7-2.6,2.8c-0.5,0.7-1.4,2.3-2.8,5c-0.3,0.5-0.5,0.8-0.7,1c-0.3,0.2-0.7,0.5-1.4,0.8
			c-3.4,1.2-5.3,1.9-5.7,2.3c-1.5,0.8-2.5,1.7-3.1,2.8c-2,3.7-1.7,6.9,0.8,9.5c2.1,2.2,4.8,3.3,8.3,3.5c1.4,0,2.7,0,4.1-0.3
			c0.8-0.1,3.2-0.7,7.3-1.7c1.3-0.3,2.5-0.4,3.6-0.6c2.4-0.2,4.7-0.1,6.9,0.2c5.4,1.3,10.4,3.6,15,7.1c-0.3-3.7-1.9-9.6-4.8-17.9
			c-1.8-4.8-4-8.6-6.7-11.4c-2.5-2.8-5.7-4.6-9.6-5.4C100.5,3.9,97.6,4.7,95.1,6.8"/>
	</g>
	<g>
		<path class="st1" d="M69.4,46.4c-1.5,1.9-2.6,4.1-3.1,6.6c-0.6,3-0.4,5.3,0.3,6.9c2.2,5,5.8,7.6,10.9,7.9c3.2,0.1,6-0.8,8.6-2.8
			c1.1-0.8,2-1.9,2.9-3.4c0.4-0.6,0.7-1.2,1-1.7c1.6-3.3,2.5-5.2,2.8-5.5c0.7-1.2,1.5-2.1,2.3-2.9c2-2,5-3.4,8.9-4l-1.2-0.5
			c-2.6-1.8-4.4-2.9-5.4-3.5c-0.7-0.4-1.9-1-3.7-1.7c-3.4-1.3-6.4-2-9.1-2.1C78,39.6,72.9,41.8,69.4,46.4"/>
	</g>
	<g>
		<path class="st8" d="M155.9,111.9c-1.5-0.1-2.8,0.4-4,1.7c-1.2,1.3-1.9,2.9-2.1,4.8c-0.2,1.9,0.2,3.7,1.1,5.1
			c0.9,1.4,2.1,2.3,3.6,2.4c1.5,0.1,2.8-0.4,4-1.7c1.2-1.3,1.9-2.9,2.1-4.8c0.2-1.9-0.2-3.7-1.1-5.1
			C158.6,112.9,157.4,112.1,155.9,111.9"/>
	</g>
	<g>
		<path class="st1" d="M153.8,114.1c-0.4,0-0.9,0.2-1.2,0.6c-0.4,0.5-0.6,1.1-0.7,1.8c-0.1,0.7,0,1.3,0.3,1.9
			c0.3,0.5,0.6,0.8,1.1,0.9c0.4,0,0.9-0.2,1.2-0.6c0.4-0.5,0.6-1.1,0.7-1.8c0.1-0.7,0-1.3-0.3-1.9
			C154.6,114.4,154.2,114.1,153.8,114.1"/>
	</g>
	<g>
		<path class="st8" d="M128.2,108c-1.5-0.1-2.8,0.4-4,1.7c-1.2,1.3-1.9,2.9-2.1,4.8c-0.2,1.9,0.2,3.7,1.1,5.1
			c0.9,1.4,2.1,2.3,3.6,2.4c1.5,0.1,2.8-0.4,4-1.7c1.2-1.3,1.9-2.9,2.1-4.8c0.2-1.9-0.2-3.7-1.1-5.1
			C130.9,109,129.7,108.2,128.2,108"/>
	</g>
	<g>
		<path class="st1" d="M126,110.1c-0.4,0-0.9,0.2-1.2,0.6c-0.4,0.5-0.6,1.1-0.7,1.8c-0.1,0.7,0,1.3,0.3,1.9c0.3,0.5,0.6,0.8,1.1,0.9
			c0.4,0,0.9-0.2,1.2-0.6c0.4-0.5,0.6-1.1,0.7-1.8c0.1-0.7,0-1.3-0.3-1.9C126.8,110.5,126.5,110.2,126,110.1"/>
	</g>
	<g>
		<path class="st8" d="M135.2,124.5c-0.1,0-0.2,0-0.2,0.1c-0.3,0.1-0.5,0.2-0.6,0.4c-0.1,0.1-0.1,0.3-0.2,0.6l0,0c0,0.5,0,1,0.1,1.4
			c0.1,1,0.4,1.8,0.8,2.6c0.7,1.5,1.9,2.4,3.5,2.7c0.2,0,0.3,0,0.5,0c1.3,0,2.5-0.5,3.5-1.7c0.4-0.5,0.8-1.4,1.2-2.6
			c0,0,0-0.1,0-0.1l0,0c0.1-0.2,0.1-0.4,0.1-0.5c0-0.2,0.1-0.3,0.1-0.6c0-0.3,0-0.6-0.1-0.9c-0.1-0.2-0.2-0.4-0.5-0.5l0,0
			c-0.5-0.1-1.1-0.2-1.9-0.3c-1.6-0.2-2.7-0.4-3.3-0.4C137.2,124.6,136.2,124.5,135.2,124.5L135.2,124.5z"/>
	</g>
	<g>
		<path class="st9" d="M117.2,120.5c-0.9,0.5-1.5,1.2-1.7,2.1c-0.2,0.9,0.1,1.8,0.8,2.6c0.7,0.8,1.7,1.3,2.8,1.6
			c1.2,0.2,2.2,0.1,3.2-0.4c0.9-0.5,1.5-1.2,1.7-2.1c0.2-0.9-0.1-1.8-0.8-2.6c-0.7-0.8-1.6-1.3-2.8-1.6
			C119.2,119.9,118.2,120.1,117.2,120.5"/>
	</g>
	<g>
		<path class="st9" d="M162.1,128.3c0.7,0.8,0.9,1.7,0.7,2.6c-0.2,0.9-0.8,1.6-1.7,2.1c-1,0.5-2,0.6-3.2,0.4
			c-1.1-0.3-2.1-0.8-2.7-1.6c-0.7-0.8-0.9-1.7-0.7-2.6c0.2-0.9,0.8-1.6,1.7-2.1c0.9-0.5,2-0.6,3.1-0.4
			C160.5,126.9,161.4,127.4,162.1,128.3"/>
	</g>
	<g>
		<path class="st10" d="M139.6,127.6c-0.7-0.2-1.4-0.2-2,0.1c-0.6,0.2-1,0.6-1.2,1.1c-0.2,0.5-0.1,1,0.3,1.5c0.4,0.5,0.9,0.8,1.6,1
			c0.7,0.2,1.4,0.2,2-0.1c0.6-0.2,1-0.6,1.2-1.1c0.2-0.5,0.1-1-0.3-1.5C140.8,128.1,140.3,127.8,139.6,127.6"/>
	</g>
</g>
</svg>
